<svg xmlns="http://www.w3.org/2000/svg" viewBox="0 0 205.3 195.9"><path fill="#2B292A" d="M186.6 66.8V49.6l-83.1-48-.9-.5-84 48.5v17.2c-5.3.4-10.7.9-16 1.4l-1.6.2 5.7 60.1 1.7-.2c3.4-.3 6.9-.6 10.3-.9v19.2l83.1 48 .9.5 84-48.5v-19.2c3.4.3 6.9.6 10.3.9l1.7.2 5.7-60.1-1.7-.2c-5.4-.5-10.7-1-16.1-1.4zM30.8 56.6l71.9-41.5 71.9 41.5v9.3c-47.8-3.2-96-3.2-143.8 0v-9.3zm72.4-43.5l-.5-.3-73.9 42.7v10.6c-2.2.2-4.4.3-6.6.5v-15l80.5-46.5 80.5 46.5v14.9c-2.2-.2-4.4-.3-6.6-.5V55.5l-73.4-42.4zm80 131.5l-80.5 46.5-80.5-46.5v-17.5c2.2-.2 4.4-.3 6.6-.5v14.2l73.4 42.4.5.3 73.9-42.7v-14.2c2.2.2 4.4.3 6.6.5v17.5zm-7.7-18h-1v13l-71.9 41.5-71.9-41.5v-13h-1.8c.3 0 .6 0 .8-.1.3 0 .7-.1 1-.1 47.8-3.4 96-3.4 143.8 0 .4.1.7.1 1 .2h.8-.8zm21.6-18.3l-1.6 16.4c-3-.3-5.9-.5-8.9-.8-.6 0-1.1-.1-1.7-.1-.6 0-1.1-.1-1.7-.1-2.2-.2-4.4-.3-6.6-.5-.3 0-.7-.1-1-.1-.3 0-.7-.1-1-.1-23.9-1.7-47.9-2.6-71.9-2.6-24 0-48 .9-71.9 2.6-.3 0-.7.1-1 .1-.3 0-.7.1-1 .1-2.2.2-4.4.3-6.6.5-.6 0-1.1.1-1.7.1-.6 0-1.1.1-1.7.1-3 .2-5.9.5-8.9.8l-1.6-16.4-3.6-36.8c1.2-.1 2.3-.2 3.5-.3 3.5-.3 7-.6 10.4-.9.6 0 1.1-.1 1.7-.1.6 0 1.1-.1 1.7-.1 1.6-.1 3.1-.2 4.7-.4.6 0 1.3-.1 1.9-.1v.1h2v-.3c47.8-3.2 96-3.2 143.8 0v.3h2v-.1c.6 0 1.3.1 1.9.1 1.6.1 3.2.2 4.7.4.6 0 1.1.1 1.7.1.6 0 1.1.1 1.7.1 3.5.3 7 .6 10.4.9 1.2.1 2.3.2 3.5.3l-3.2 36.8z"/><path fill="#2B292A" d="M121.9 50.2l-17.3-25.1-1.9-2.8-2 2.8-17.3 25.1 3.6 9.4h31.3zm-52.3-1.4L67.8 45l-1.9 3.8-4.2.6 3 2.9-.7 4.2 3.8-2 3.7 2-.7-4.2 3-2.9zm64.2 7.7l3.7-2 3.8 2-.7-4.2 3-2.9-4.2-.6-1.9-3.8-1.8 3.8-4.2.6 3 2.9zM23.3 91.6l-1.2 1.1-1.7 1.7-1.7 1.7-1.5 1.5 1.5 1.4 1.7 1.7 1.7 1.7 1.2 1.2 5.5-5.5.5-.5-.5-.5zm161.6 3.7l-1.7-1.8-2-1.9-4.7 4.6-1 1-.3.4.3.3 1 1 4.7 4.7 2-2 1.7-1.7 1.7-1.8.6-.5-.6-.6zM40.3 116.4c-1.3-14-2.6-27.9-4-41.9l10.2-.9c2.4-.2 4.4-.2 6.1.1 1.7.2 3.2.8 4.5 1.5 1.3.8 2.3 1.9 3 3.3.7 1.4 1.1 3.2 1.2 5.3.2 2.6-.1 4.8-.8 6.5-.7 1.7-2 3-3.8 3.9 2.5 6.8 4.9 13.5 7.2 20.3-2.6.2-5.1.3-7.7.5-2.1-6.3-4.3-12.5-6.5-18.8-1.2.1-2.3.2-3.5.3.5 6.4 1.1 12.8 1.6 19.1-2.4.3-4.9.5-7.5.8zM46 91.7c.6-.1 1.3-.1 1.9-.2 2.3-.2 4-.8 4.9-1.8.9-1 1.3-2.7 1.1-5-.2-2.2-.7-3.8-1.6-4.7-.9-.9-2.6-1.3-4.9-1.1-.8.1-1.6.1-2.4.2.3 4.1.6 8.4 1 12.6zm23.1 22.6l-2.1-42c6.2-.3 12.5-.6 18.7-.7 0 1.8.1 3.6.1 5.4l-10.5.3c.2 4 .3 8 .5 12.1 2.7-.1 5.4-.2 8.2-.3 0 1.8.1 3.6.1 5.4l-8.1.3c.2 4.6.4 9.2.5 13.9l10.2-.3c0 1.8.1 3.5.1 5.3-5.8 0-11.8.3-17.7.6zm26.3-.8c-.1-12.1-.3-24.3-.4-36.4-2.5 0-5 .1-7.4.1 0-1.9-.1-3.8-.1-5.7 7.6-.2 15.3-.2 22.9-.1 0 1.9 0 3.8-.1 5.7h-7.2v36.4c-2.6-.1-5.1-.1-7.7 0zm17.9 0l.6-42c3.4.1 6.8.1 10.3.2 2.4.1 4.4.3 6.1.8 1.7.4 3.1 1.1 4.3 2 1.2.9 2.1 2.1 2.6 3.6s.8 3.3.7 5.4c-.1 2.6-.7 4.8-1.5 6.4-.9 1.6-2.3 2.8-4.2 3.5 1.7 7 3.4 14 5 21-2.6-.1-5.1-.2-7.7-.3-1.4-6.5-2.9-12.9-4.4-19.4-1.2 0-2.3-.1-3.5-.1-.2 6.4-.3 12.8-.5 19.2-2.7-.2-5.3-.3-7.8-.3zm8.3-23.9c.6 0 1.3 0 1.9.1 2.4.1 4-.4 5.1-1.3 1-.9 1.6-2.6 1.7-4.9.1-2.2-.3-3.9-1.1-4.9-.8-1-2.4-1.5-4.8-1.6-.8 0-1.6 0-2.4-.1-.2 4.2-.3 8.4-.4 12.7zm31.9 26.2c-4.3-.3-7.3-1.7-9.1-4.2-1.7-2.5-2.5-6-2.2-10.5.3-5.2.6-10.3.9-15.5.1-2.2.5-4.1 1-5.8.5-1.6 1.3-3 2.4-4.1 1.1-1.1 2.5-2 4.2-2.4 1.7-.5 3.7-.6 6.1-.5 4.6.4 7.8 1.8 9.6 4.3 1.8 2.5 2.5 6 2 10.4-.5 5.2-1 10.3-1.5 15.5-.2 2.2-.6 4.1-1.2 5.7-.6 1.6-1.4 3-2.5 4.1-1.1 1.1-2.4 1.9-4 2.4-1.6.6-3.5.8-5.7.6zm-1.5-6.1c.5.3 1.2.4 1.9.5.7.1 1.4 0 1.9-.2s1-.4 1.3-.8c.3-.3.6-.8.9-1.3.2-.6.4-1.1.5-1.7.1-.6.2-1.2.3-2 .5-6.3 1-12.7 1.6-19 .1-1 .1-1.9 0-2.5 0-.7-.2-1.3-.5-2-.3-.6-.7-1.1-1.3-1.5-.6-.3-1.4-.6-2.3-.6-1-.1-1.8 0-2.4.3-.7.2-1.2.7-1.5 1.2-.3.6-.6 1.2-.7 1.9-.2.7-.3 1.5-.3 2.5-.4 6.4-.9 12.7-1.3 19.1-.1.8-.1 1.5-.1 2.1 0 .6.1 1.2.2 1.7.1.6.4 1.1.6 1.4.3.3.7.6 1.2.9zm-90.2 27.1h1.4v3.5c-1 .7-2.4 1.2-3.7 1.2-2.8 0-5-2.1-5-4.8 0-2.7 2.2-4.8 5.1-4.8 1.4 0 2.7.5 3.7 1.3l-.9 1.2c-.7-.7-1.8-1.1-2.8-1.1-1.9 0-3.5 1.5-3.5 3.4s1.5 3.4 3.5 3.4c.7 0 1.5-.2 2.2-.7v-2.6zm7.6 3.3c1.6 0 2.5-1 2.5-2.6V132h1.6v5.6c0 2.5-1.6 4-4.1 4s-4.2-1.5-4.2-4V132h1.6v5.6c.1 1.5 1.1 2.5 2.6 2.5zm12.3-.8h-4.8l-.9 2.2h-1.7l4.2-9.5h1.6l4.2 9.5h-1.7l-.9-2.2zm-.6-1.4l-1.8-4.2-1.8 4.2h3.6zm10.6 3.6l-1.7-2.9h-2.7v2.9h-1.6V132h3.9c2.4 0 3.8 1.2 3.8 3.3 0 1.5-.7 2.6-2 3.1l2.1 3.2h-1.8zm-2.2-4.3c1.5 0 2.3-.6 2.3-1.9 0-1.3-.8-1.9-2.3-1.9h-2.3v3.8h2.3zm12.1 2.1h-4.8l-.9 2.2h-1.7l4.2-9.5h1.6l4.2 9.5h-1.7l-.9-2.2zm-.6-1.4l-1.8-4.2-1.8 4.2h3.6zm6.1-5.9l5.1 6.8V132h1.6v9.5h-1.6l-5.1-6.8v6.8h-1.6V132h1.6zm15.7 0v1.4h-3v8.1h-1.6v-8.1h-3V132h7.6zm8.2 0v1.4h-5.2v2.6h4.7v1.4h-4.7v2.6h5.4v1.4h-7V132h6.8zm8.9 0v1.4h-5.2v2.6h4.7v1.4h-4.7v2.6h5.4v1.4h-7V132h6.8zm10.9 4.7c0 2.7-2.1 4.8-5 4.8H142V132h3.9c2.9 0 4.9 2 4.9 4.7zm-1.6 0c0-1.9-1.5-3.3-3.3-3.3h-2.3v6.6h2.3c1.9 0 3.3-1.3 3.3-3.3zm-50.7 12.7v1.1h-3.8v1.9h3.4v1h-3.4v1.9h3.9v1.1h-5.1v-7h5zm3.7 1c-.7 0-1.1.3-1.1.7 0 1.5 3.8.7 3.8 3.2 0 1.2-1.1 2-2.6 2-1.1 0-2.1-.4-2.9-1.1l.5-1c.7.7 1.6 1 2.4 1 .8 0 1.3-.3 1.3-.8 0-1.6-3.8-.7-3.8-3.2 0-1.2 1-1.9 2.5-1.9.9 0 1.8.3 2.4.7l-.5 1c-.7-.4-1.4-.6-2-.6zm8.8-1v1.1h-2.2v5.9h-1.2v-5.9h-2.2v-1.1h5.6zm1.3 6.4c0 .4-.3.7-.6.7s-.6-.3-.6-.7c0-.4.3-.6.6-.6s.6.2.6.6zm-18.2 5.5v7h-1.2v-5.9h-1.5v-1.1h2.7zm5 6.1c1.3 0 2-1 1.9-2.5-.4.7-1 1-1.9 1-1.4 0-2.2-.9-2.2-2.2 0-1.4 1-2.3 2.4-2.3 1.8 0 2.8 1.3 2.8 3.4 0 2.2-1.2 3.7-3 3.7-.7 0-1.5-.2-2.1-.5l.5-.9c.5.1 1.1.3 1.6.3zm-1.1-3.8c0 .8.5 1.3 1.4 1.3.9 0 1.5-.6 1.5-1.3 0-.6-.4-1.3-1.4-1.3-.9 0-1.5.5-1.5 1.3zm7.3 3.8c1.3 0 2-1 1.9-2.5-.4.7-1 1-1.9 1-1.4 0-2.2-.9-2.2-2.2 0-1.4 1-2.3 2.4-2.3 1.8 0 2.8 1.3 2.8 3.4 0 2.2-1.2 3.7-3 3.7-.7 0-1.5-.2-2.1-.5l.5-.9c.4.1 1 .3 1.6.3zm-1.1-3.8c0 .8.5 1.3 1.4 1.3.9 0 1.5-.6 1.5-1.3 0-.6-.4-1.3-1.4-1.3-1 0-1.5.5-1.5 1.3zm10.4-2.3v.9l-2.9 6.1h-1.2l2.9-5.9h-3v1h-1v-2h5.2z"/><path fill="#FFF" d="M97.8 55V36.8h4.2c1 0 1.8.1 2.5.2.7.2 1.3.4 1.8.8s.9.9 1.1 1.5c.3.6.4 1.4.4 2.3 0 1.1-.2 2.1-.5 2.8-.3.7-.9 1.3-1.7 1.6l2.5 9h-3.3l-2.2-8.3h-1.5V55h-3.3zm3.3-10.5h.8c1 0 1.7-.2 2.1-.6.4-.4.6-1.1.6-2.1s-.2-1.7-.5-2.1c-.4-.4-1-.6-2-.6h-1v5.4z"/></svg>