<svg xmlns="http://www.w3.org/2000/svg" viewBox="0 0 207.8 188.4"><path fill="#2B292A" d="M21.8-135l-1.8.9c.4.8.9 1.6 1.5 2.3.2.2.3.4.5.7l1.6-1.2c-.2-.2-.4-.5-.5-.7-.5-.6-1-1.3-1.3-2zm3.7 5.7l-1.7 1c.6 1 1.1 2 1.5 3l1.8-.8c-.4-1.1-1-2.2-1.6-3.2zm3 6.4l-1.9.6c.4 1.1.7 2.1.9 3.2l2-.4c-.3-1.1-.7-2.3-1-3.4zm.3-36.6l-1.9-.6c-.3 1.1-.7 2.1-1.1 3.1l1.9.8c.3-1 .7-2.2 1.1-3.3zm-6.6 12.3l-1.7-1c-.6 1.1-1.1 2.2-1.5 3.4l1.9.6c.3-1.1.7-2.1 1.3-3zM26-153l-1.8-1c-.5 1-1.1 1.9-1.8 2.8l1.7 1.1c.7-.8 1.4-1.8 1.9-2.9zm-7.3 15.4l2-.4c-.2-.9-.3-1.8-.3-2.7v-.5l-2-.1v.5c0 1.2.1 2.2.3 3.2zm27.3 6.1c-1.1 0-2.1-.1-3-.4-.9-.3-1.6-.7-2.1-1.2s-1-1.1-1.4-1.9-.6-1.5-.7-2.4c-.1-.8-.2-1.8-.2-2.9v-9c0-1.1.1-2.1.2-3 .1-.9.4-1.7.7-2.4.3-.7.8-1.4 1.4-1.8.6-.5 1.3-.9 2.1-1.1.8-.3 1.8-.4 3-.4 1.3 0 2.4.2 3.3.5.9.3 1.6.8 2.2 1.5.5.7.9 1.4 1.2 2.3.2.9.4 1.9.4 3.1v2.2h-4.6v-2.2c0-1.3-.1-2.2-.2-2.6-.3-.9-.9-1.3-2-1.4H46c-.4 0-.7 0-1 .1-.3.1-.5.2-.7.4-.2.2-.3.4-.5.6-.1.2-.2.5-.3.9-.1.4-.1.7-.1 1v12.2c0 1.5.2 2.6.6 3.3.4.6 1.1 1 2 1 .3 0 .6 0 .9-.1.3-.1.5-.2.6-.3.2-.1.3-.3.4-.5l.3-.6c.1-.2.1-.5.1-.8 0-.3 0-.6.1-.9v-3.3H53v2.1c0 1-.1 1.8-.2 2.6s-.4 1.5-.7 2.2c-.3.7-.8 1.2-1.3 1.7s-1.2.8-2 1.1c-.8.3-1.7.4-2.8.4zm10.3-.3v-25.9h5.9c1.4 0 2.5.1 3.5.3 1 .2 1.8.6 2.6 1.1s1.3 1.2 1.6 2.1c.4.9.5 2 .5 3.3 0 1.6-.2 3-.7 4-.5 1-1.3 1.8-2.4 2.3l3.6 12.8h-4.7l-3.1-11.8H61v11.8h-4.7zm4.7-14.9h1.1c1.4 0 2.4-.3 3-.9s.9-1.6.9-3-.3-2.4-.8-3c-.5-.6-1.4-.9-2.8-.9H61v7.8zm13.1 14.9v-25.9H85v3.3h-6.1v7.4h4.8v3.3h-4.8v8.6H85v3.3H74.1zm12.3 0l5.3-25.9h4.9l5.3 25.9h-4.4l-1-6H92l-1.1 6h-4.5zm6-9.1h3.5l-1.7-10.6-1.8 10.6zm13.6 9.1v-22.4h-4.3v-3.5H115v3.5h-4.2v22.4H106zm11.1 0v-25.9h4.7v25.9h-4.7zm12.7 0l-5.3-25.9h4.2l3.4 18 3.2-18h4.3l-5.3 25.9h-4.5zm12.5 0v-25.9h10.9v3.3h-6.1v7.4h4.8v3.3h-4.8v8.6h6.2v3.3h-11zm20.2.3c-4.6 0-7-2.6-7.2-7.9l4.1-.9c.1 3.4 1.1 5.1 2.9 5.1.7 0 1.3-.2 1.6-.7.3-.4.5-1 .5-1.8 0-.7-.1-1.4-.4-2-.3-.6-.6-1.1-.9-1.5-.3-.4-.8-.9-1.5-1.4l-3.4-3c-1-.9-1.7-1.8-2.2-2.7-.5-.9-.7-2.1-.7-3.5 0-2 .6-3.6 1.8-4.7 1.2-1.1 2.8-1.7 4.9-1.7.9 0 1.8.1 2.5.4.7.2 1.3.6 1.8 1s.9.9 1.2 1.5.6 1.3.7 1.9.3 1.4.3 2.2l-4 .8c0-.5-.1-1-.1-1.4 0-.4-.1-.8-.2-1.2-.1-.4-.3-.7-.4-1s-.4-.4-.7-.6-.7-.2-1.1-.2c-.7 0-1.2.3-1.6.7-.4.4-.6 1-.6 1.7 0 .8.2 1.5.5 2.1.3.5.8 1.1 1.5 1.7l3.4 2.9c.6.5 1.1 1 1.5 1.5s.8 1 1.2 1.6c.4.6.7 1.3.9 2s.3 1.5.3 2.3c0 1.9-.6 3.4-1.8 4.6-1.3 1.6-2.8 2.2-4.8 2.2zM66-101.3v-22.2h5.2c1.3 0 2.5.1 3.4.4.9.3 1.6.7 2.2 1.3.5.6.9 1.3 1.2 2.1.2.8.3 1.9.3 3.1v8c0 1.3-.1 2.3-.3 3.2s-.6 1.6-1.1 2.3c-.5.6-1.2 1.1-2.1 1.4-.9.3-2 .4-3.3.4H66zm4.1-2.9h1.2c.4 0 .8 0 1.1-.1.3-.1.6-.2.8-.3.2-.1.4-.3.5-.5l.3-.6c.1-.2.1-.5.2-.9 0-.4.1-.7.1-1v-10.6c0-.3-.1-.6-.1-1-.1-.3-.2-.6-.3-.8-.1-.2-.3-.3-.5-.5-.2-.1-.5-.3-.8-.3-.3-.1-.7-.1-1.2-.1h-1.1v16.7zm11.1 2.9v-22.2h9.3v2.9h-5.3v6.4h4.2v2.9h-4.2v7.3h5.3v2.8h-9.3zm17.4.3c-3.9 0-6-2.3-6.2-6.8l3.5-.7c.1 2.9.9 4.4 2.5 4.4.6 0 1.1-.2 1.4-.6.3-.4.4-.9.4-1.5s-.1-1.2-.3-1.7c-.2-.5-.5-.9-.8-1.3s-.7-.7-1.3-1.2l-2.9-2.5c-.9-.8-1.5-1.5-1.9-2.3-.4-.8-.6-1.8-.6-3 0-1.7.5-3.1 1.5-4 1-1 2.4-1.4 4.2-1.5.8 0 1.5.1 2.2.3.6.2 1.1.5 1.5.8.4.4.7.8 1 1.3.3.5.5 1.1.6 1.6.1.6.2 1.2.3 1.9l-3.5.7c0-.4 0-.8-.1-1.2s-.1-.7-.2-1c-.1-.3-.2-.6-.4-.8-.2-.2-.4-.4-.6-.5-.3-.1-.6-.2-.9-.1-.6 0-1.1.2-1.4.6s-.5.8-.5 1.5.1 1.3.4 1.8c.3.5.7 1 1.3 1.5l2.9 2.5c.5.4.9.9 1.3 1.3s.7.9 1 1.4c.3.5.6 1.1.7 1.7s.3 1.3.3 2c0 1.6-.5 2.9-1.5 3.9-.9 1-2.3 1.5-3.9 1.5zm8-.3v-22.2h4v22.2h-4zm13 .3c-2.1 0-3.6-.7-4.5-2s-1.4-3.2-1.4-5.7v-7.2c0-1.3.1-2.4.3-3.3.2-.9.5-1.7 1-2.4s1.1-1.2 2-1.6c.8-.3 1.9-.5 3.1-.5 2.2 0 3.8.5 4.7 1.6 1 1.1 1.4 2.7 1.4 4.9v1.1h-3.9v-2.4c0-.3-.1-.6-.2-.9-.1-.3-.2-.6-.4-.7s-.4-.3-.7-.4c-.3-.1-.6-.2-1-.2-.3 0-.6 0-.8.1l-.6.3c-.2.1-.3.3-.4.5l-.3.6c-.1.2-.1.4-.1.7 0 .3-.1.6-.1.8v9.9c0 1.3.2 2.3.5 2.9.3.6 1 .9 1.9.9.5 0 .9-.1 1.2-.3.3-.2.6-.5.8-.8s.3-.8.4-1.3.1-1.1.1-1.7v-1.8h-2.4v-2.6h6.1v11.3h-2.6l-.3-2.3c-.7 1.6-2 2.5-3.8 2.5zm9.8-.3v-22.2h2.8l5.4 12.6v-12.6h3.4v22.2h-2.7l-5.5-13.2v13.2h-3.4zm-64.5-89v1.2h-4.3v2.2h3.9v1.2h-3.9v2.2H65v1.2h-5.8v-7.9h5.7zm4.3 1.2c-.8 0-1.3.3-1.3.8 0 1.7 4.3.8 4.3 3.7 0 1.4-1.2 2.3-3 2.3-1.2 0-2.4-.5-3.2-1.3l.6-1.2c.8.7 1.8 1.2 2.7 1.2.9 0 1.5-.4 1.5-1 0-1.8-4.3-.8-4.3-3.6 0-1.4 1.2-2.2 2.9-2.2 1 0 2 .3 2.8.8l-.6 1.2c-1-.4-1.8-.7-2.4-.7zm9.9-1.2v1.2h-2.5v6.7h-1.3v-6.7h-2.5v-1.2h6.3zm1.4 7.3c0 .4-.3.8-.7.8-.4 0-.7-.3-.7-.8 0-.4.3-.7.7-.7.4 0 .7.3.7.7zm44.6-7.3v7.9h-1.3v-6.7h-1.7v-1.2h3zm5.7 6.9c1.5 0 2.2-1.2 2.2-2.9-.4.7-1.2 1.1-2.2 1.1-1.6 0-2.5-1-2.5-2.5 0-1.6 1.1-2.7 2.8-2.7 2 0 3.2 1.4 3.2 3.9s-1.3 4.2-3.4 4.2c-.8 0-1.7-.2-2.4-.6l.5-1c.5.3 1.2.5 1.8.5zm-1.3-4.3c0 .9.6 1.5 1.5 1.5 1.1 0 1.7-.7 1.7-1.5 0-.7-.5-1.5-1.6-1.5-.9 0-1.6.6-1.6 1.5zm8.3 4.3c1.5 0 2.2-1.2 2.2-2.9-.4.7-1.2 1.1-2.2 1.1-1.6 0-2.5-1-2.5-2.5 0-1.6 1.1-2.7 2.8-2.7 2 0 3.2 1.4 3.2 3.9s-1.3 4.2-3.4 4.2c-.8 0-1.7-.2-2.4-.6l.5-1c.5.3 1.2.5 1.8.5zm-1.3-4.3c0 .9.6 1.5 1.5 1.5 1.1 0 1.7-.7 1.7-1.5 0-.7-.5-1.5-1.6-1.5-.9 0-1.6.6-1.6 1.5zm11.9-2.6v1l-3.3 6.9h-1.4l3.3-6.7h-3.4v1.1h-1.2v-2.3h6zM68.9-86.5H70v3c-.8.6-2 1-3.1 1-2.4 0-4.2-1.8-4.2-4.1s1.9-4.1 4.3-4.1c1.2 0 2.3.4 3.1 1.1l-.8 1c-.6-.6-1.5-.9-2.3-.9-1.6 0-2.9 1.3-2.9 2.9 0 1.6 1.3 2.9 3 2.9.6 0 1.3-.2 1.9-.6v-2.2zm6.4 2.8c1.3 0 2.1-.8 2.1-2.2v-4.7h1.4v4.7c0 2.1-1.3 3.4-3.5 3.4s-3.5-1.3-3.5-3.4v-4.7h1.4v4.7c0 1.4.8 2.2 2.1 2.2zm10.5-.6h-4.1l-.8 1.8h-1.4l3.6-8.1h1.4l3.5 8.1h-1.5l-.7-1.8zm-.6-1.2l-1.5-3.6-1.5 3.6h3zm9 3L92.7-85h-2.3v2.4H89v-8.1h3.3c2.1 0 3.3 1 3.3 2.8 0 1.3-.6 2.2-1.7 2.6l1.8 2.7h-1.5zm-1.9-3.7c1.2 0 2-.5 2-1.6s-.7-1.6-2-1.6h-1.9v3.2h1.9zm10.3 1.9h-4.1l-.8 1.8h-1.4l3.6-8.1h1.4l3.5 8.1h-1.5l-.7-1.8zm-.5-1.2l-1.5-3.6-1.6 3.6h3.1zm5.1-5.1l4.3 5.8v-5.8h1.3v8.1h-1.3l-4.3-5.8v5.8h-1.4v-8.1h1.4zm13.3 0v1.2H118v6.9h-1.4v-6.9h-2.5v-1.2h6.4zm7 0v1.2h-4.4v2.2h3.9v1.2h-3.9v2.2h4.5v1.2h-5.9v-8.1h5.8zm7.5 0v1.2h-4.4v2.2h3.9v1.2h-3.9v2.2h4.5v1.2h-5.9v-8.1h5.8zm9.3 4c0 2.3-1.8 4-4.2 4h-3.3v-8.1h3.3c2.5.1 4.2 1.8 4.2 4.1zm-1.4.1c0-1.6-1.2-2.8-2.8-2.8h-1.9v5.6h2c1.5 0 2.7-1.2 2.7-2.8z"/><path fill="#2B292A" d="M21.6-108.3c-.6 4.7.3 9.3 2.6 13.4 2.4 4.1 5.9 7.2 10.3 9 6.4 2.6 11.6 7.8 14.3 14.3 1.8 4.4 4.9 7.9 9 10.3 4.1 2.4 8.7 3.3 13.4 2.6 6.9-1 14 .9 19.5 5.2 3.7 2.9 8.2 4.4 12.9 4.4 4.7 0 9.2-1.5 12.9-4.4 5.5-4.3 12.6-6.2 19.5-5.2 4.7.6 9.3-.3 13.4-2.6 4.1-2.4 7.2-5.9 9-10.3 2.6-6.4 7.8-11.6 14.3-14.3 4.4-1.8 7.9-4.9 10.3-9 2.4-4.1 3.3-8.7 2.6-13.4-1-6.9.9-14 5.2-19.5 2.9-3.7 4.4-8.2 4.4-12.9 0-4.7-1.5-9.2-4.4-12.9-4.3-5.5-6.2-12.6-5.2-19.5.6-4.7-.3-9.3-2.6-13.4-2.4-4.1-5.9-7.2-10.3-9-6.4-2.6-11.6-7.8-14.3-14.3-1.8-4.4-4.9-7.9-9-10.3-4.1-2.4-8.7-3.3-13.4-2.6-6.9 1-14-.9-19.5-5.2-3.7-2.9-8.2-4.4-12.9-4.4-4.7 0-9.2 1.5-12.9 4.4-5.5 4.3-12.6 6.2-19.5 5.2-4.7-.6-9.3.3-13.4 2.6-4.1 2.4-7.2 5.9-9 10.3-2.6 6.4-7.8 11.6-14.3 14.3-4.4 1.8-7.9 4.9-10.3 9-2.4 4.1-3.3 8.7-2.6 13.4 1 6.9-.9 14-5.2 19.5-2.9 3.7-4.4 8.2-4.4 12.9 0 4.7 1.5 9.2 4.4 12.9 4.3 5.5 6.2 12.6 5.2 19.5zm3.4-65.3c-.5-3.9.2-7.8 2.2-11.2 2-3.4 4.9-6 8.6-7.5 7.3-3 13.2-8.9 16.2-16.2 1.5-3.6 4.1-6.6 7.5-8.6 3.4-2 7.3-2.7 11.2-2.2 7.8 1.1 15.8-1.1 22.1-5.9 3.1-2.4 6.8-3.7 10.8-3.7s7.7 1.3 10.8 3.7c6.2 4.8 14.3 7 22.1 5.9 3.9-.5 7.8.2 11.2 2.2 3.4 2 6 4.9 7.5 8.6 3 7.3 8.9 13.2 16.2 16.2 3.6 1.5 6.6 4.1 8.6 7.5 2 3.4 2.7 7.3 2.2 11.2-1.1 7.8 1.1 15.8 5.9 22.1 2.4 3.1 3.7 6.8 3.7 10.8 0 3.9-1.3 7.7-3.7 10.8-4.8 6.2-7 14.3-5.9 22.1.5 3.9-.2 7.8-2.2 11.2-2 3.4-4.9 6-8.6 7.5-7.3 3-13.2 8.9-16.2 16.2-1.5 3.6-4.1 6.6-7.5 8.6-3.4 2-7.3 2.7-11.2 2.2-7.8-1.1-15.8 1.1-22.1 5.9-3.1 2.4-6.8 3.7-10.8 3.7s-7.7-1.3-10.8-3.7c-5.2-4-11.6-6.2-18.1-6.2-1.3 0-2.7.1-4 .3-3.9.5-7.8-.2-11.2-2.2-3.4-2-6-4.9-7.5-8.6-3-7.3-8.9-13.2-16.2-16.2-3.6-1.5-6.6-4.1-8.6-7.5-2-3.4-2.7-7.3-2.2-11.2 1.1-7.8-1.1-15.8-5.9-22.1-2.4-3.1-3.7-6.8-3.7-10.8 0-3.9 1.3-7.7 3.7-10.8 4.8-6.2 7-14.3 5.9-22.1z"/><path fill="#2B292A" d="M130.3-67.4l.1 2c1.1-.1 2.2-.1 3.3 0l.1-2c-1.2-.1-2.4-.1-3.5 0zm6.7-146.8c1-.1 2-.2 3-.1l.2-2c-1.1-.1-2.3-.1-3.5.1h-.2l.3 2h.2zM30.3-112.4c0-1.2-.1-2.4-.2-3.5l-2 .2c.1 1.1.2 2.2.2 3.3h2zM159-196.9c-.8-.8-1.5-1.6-2.2-2.5l-1.6 1.2c.7.9 1.5 1.8 2.3 2.7l1.5-1.4zM137.3-67.1l-.2 2c.6.1 1.1.1 1.7.1.7 0 1.3 0 2-.1l-.3-2c-1.1.1-2.1.1-3.2 0zm15.9-134l1.7-1.1c-.6-.9-1.1-1.9-1.6-2.9l-1.8.9c.5 1.1 1.1 2.1 1.7 3.1zm-1.4-7.1c-.5-1.1-1.2-2.2-2-3.1l-1.5 1.3c.7.8 1.3 1.7 1.7 2.7l1.8-.9zM30-107.2c.1-.6.1-1.1.2-1.7l-2-.2c0 .5-.1 1.1-.2 1.6-.1.6-.1 1.3-.1 1.9h2c-.1-.5 0-1 .1-1.6zm115 38.5c-.5.3-1 .5-1.5.7l.8 1.9c.6-.2 1.2-.5 1.7-.8.5-.3 1-.6 1.5-1l-1.2-1.6c-.4.2-.8.5-1.3.8zm.9-143.4l1.1-1.7c-.3-.2-.7-.4-1-.7-.7-.4-1.5-.8-2.2-1.1l-.7 1.9c.7.2 1.3.6 1.9.9.3.3.6.5.9.7zM54.3-79.5l-1.7 1c.6 1 1.1 1.9 1.6 3l1.8-.8c-.5-1.1-1.1-2.2-1.7-3.2zm-5.7-4.3c.8.8 1.5 1.7 2.1 2.6l1.6-1.2c-.7-.9-1.5-1.9-2.3-2.7l-1.4 1.3zm-20.3-18.1c.3 1.2.8 2.3 1.4 3.4l1.8-1c-.5-.9-.9-1.9-1.2-3l-2 .6zm59.4 39.1c1 .4 2 .9 3 1.5l1-1.7c-1-.6-2.1-1.1-3.2-1.6l-.8 1.8zm7 1.7l-1.2 1.6c.4.3.7.5 1.1.8.6.5 1.2.9 1.9 1.2l1-1.8c-.6-.3-1.1-.7-1.6-1.1-.5-.1-.9-.4-1.2-.7zM55.6-72.3c.6 1.1 1.4 2.1 2.2 2.9l1.4-1.4c-.7-.8-1.4-1.6-1.9-2.5l-1.7 1zm-27.5-101c.1 1.1.2 2.2.2 3.3h2c0-1.2-.1-2.4-.2-3.5l-2 .2zm15.5 85.1c.9.6 1.8 1.3 2.6 2.1l1.3-1.5c-.9-.8-1.8-1.5-2.8-2.2l-1.1 1.6zm-11.8-7.3c.8.9 1.8 1.7 2.8 2.4l1.1-1.7c-.9-.6-1.7-1.2-2.4-2l-1.5 1.3zm6 3.9c1 .4 2 1 3 1.5l1-1.7c-1-.6-2.1-1.1-3.2-1.6l-.8 1.8zm146.5-41.9l1.6 1.2c.7-1 1.3-2.1 1.7-3.3l-1.9-.7c-.3 1-.8 2-1.4 2.8zm-6.4 12.5l1.9.5c.3-1.1.6-2.1 1-3.2l-1.9-.7c-.3 1.2-.7 2.3-1 3.4zM99.8-56.1c1.2.3 2.4.5 3.7.5v-2c-1.1 0-2.1-.1-3.2-.4l-.5 1.9zm55.8-27.5l1.6 1.3c.7-.9 1.5-1.7 2.2-2.5l-1.4-1.4c-.9.8-1.7 1.7-2.4 2.6zm26.4-67.6l1.7-1.1c-.6-.9-1.1-1.9-1.6-2.9l-1.8.9c.5 1 1 2.1 1.7 3.1zm-2.9-13.5c-.2-1.1-.3-2.2-.3-3.3l-2 .1c.1 1.2.2 2.4.3 3.5l2-.3zm1.4 37.1l1.8.9c.5-1 1.1-2 1.7-2.9l-1.7-1.1c-.7 1.1-1.3 2.1-1.8 3.1zm-8.1 32l1.3 1.6c1-.8 1.8-1.7 2.6-2.7l-1.6-1.2c-.7.9-1.5 1.6-2.3 2.3zm3.8-5.1l1.9.8c.5-1.1.8-2.3 1-3.6l-2-.3c-.2 1.1-.5 2.1-.9 3.1zm2.5-9.8l-2 .1c0 1.1.1 2.2.3 3.3v.3l2-.2v-.3c-.1-1.1-.2-2.2-.3-3.2zm-1.9-3.5l2 .1c.1-1.1.2-2.2.4-3.3l-2-.3c-.2 1.2-.4 2.4-.4 3.5zm10.6-32.4c-.5-1.1-1.1-2.2-1.9-3.2l-1.6 1.2c.7.9 1.2 1.8 1.6 2.7l1.9-.7zM170-189.5c-1-.4-2-.9-3-1.4l-.9 1.8c1 .6 2.1 1.1 3.2 1.5l.7-1.9zm-.7 95.7c-.9.4-1.9.8-2.8 1.3l.9 1.8c.9-.4 1.7-.8 2.6-1.2.2-.1.3-.1.5-.2l-.8-1.8c-.1 0-.3 0-.4.1zm-5.2-98.8c-.9-.6-1.8-1.3-2.7-2l-1.3 1.5c.9.8 1.9 1.5 2.8 2.1l1.2-1.6zM151.7-77.7l1.8.9c.5-1 1.1-2 1.7-2.9l-1.7-1.1c-.7 1-1.3 2-1.8 3.1zm8.9-10.9l1.3 1.6c.9-.7 1.8-1.4 2.7-2l-1.1-1.7c-1 .6-2 1.3-2.9 2.1zm16.4-85.6l-.3 2.7 2 .1c0-.9.1-1.7.3-2.6 0-.3.1-.6.1-.8l-2-.2c0 .3-.1.5-.1.8zM148.6-71.8l1.6 1.2c.8-1 1.4-2 1.9-3.2l-1.8-.8c-.5 1.1-1.1 2-1.7 2.8zm30.3-106.7c-.2-1.2-.6-2.4-1.1-3.5l-1.8.8c.4 1 .8 2 .9 3l2-.3zm-.1 20.9l1.9-.7c-.4-1-.7-2.1-1-3.2l-1.9.5c.3 1.2.6 2.3 1 3.4zm-4.5-26.3l1.6-1.3c-.8-1-1.7-1.8-2.7-2.6l-1.2 1.6c.9.7 1.7 1.5 2.3 2.3zm12.3 43.2c0 .5 0 .9-.1 1.4l2 .2c.1-.5.1-1 .1-1.6 0-.7-.1-1.4-.2-2.1l-2 .3c.1.6.2 1.2.2 1.8zM54.8-202.8l-1.8-1c-.5 1-1.1 1.9-1.8 2.8l1.6 1.2c.8-1 1.4-2 2-3zm1.8-3.7c.3-.8.8-1.6 1.3-2.4l-1.7-1.1c-.6.9-1.1 1.8-1.5 2.7-.1.2-.1.3-.2.5l1.8.8c.1-.2.2-.3.3-.5zm-5.8 9.5l-1.5-1.3c-.7.8-1.5 1.7-2.3 2.4l1.4 1.5c.8-.9 1.6-1.7 2.4-2.6zm11.1-15.7c.2-.1.4-.2.7-.4l-.9-1.8c-.3.1-.5.3-.8.4-.8.5-1.6 1-2.3 1.6l1.3 1.5c.7-.4 1.3-.9 2-1.3zm6.9-1.6l.1-2c-1.2-.1-2.5 0-3.7.3l.4 2c1-.3 2.1-.4 3.2-.3zm-7 145.5l-1 1.7.2.1c1 .6 2.1 1.1 3.2 1.4l.6-1.9c-1-.3-1.9-.7-2.8-1.2l-.2-.1zm6 3.7h.4c.7 0 1.3 0 2-.1.4-.1.8-.1 1.2-.1l-.2-2c-.4 0-.8.1-1.2.1-.7.1-1.4.1-2.1.1l-.1 2zM45.6-192.2l-1.2-1.6c-.9.7-1.8 1.3-2.8 1.9l1.1 1.7c1-.6 2-1.2 2.9-2zm-15.1 12.3l-1.9-.6c-.4 1.2-.6 2.4-.7 3.6l2 .1c0-1 .2-2.1.6-3.1zm7.2-7.7c.6-.3 1.3-.5 1.9-.8l-.9-1.8c-.6.3-1.2.5-1.8.8-.5.2-.9.4-1.4.7l.9 1.8c.5-.4.9-.5 1.3-.7zm38-26.3l-.1-2c-1.1 0-2.2 0-3.3-.1l-.1 2c.8.1 1.7.1 2.5.1h1zm-45.6 47.5l-2-.2c-.1 1.1-.3 2.2-.5 3.3l2 .4c.3-1.2.4-2.4.5-3.5zm3.8-18.8l-1.4-1.5c-.9.8-1.7 1.8-2.4 2.8l1.7 1.1c.6-.9 1.3-1.7 2.1-2.4zm82.8 121.5l.9 1.8c1-.5 2-1 3-1.4l-.7-1.9c-1.1.4-2.2.9-3.2 1.5zm3.5-154.6c-1-.4-2-.9-3-1.4l-.9 1.8c1 .6 2.1 1.1 3.2 1.5l.7-1.9zm-19-5.3l-.4-2c-1.2.2-2.4.6-3.5 1.1l.8 1.8c1-.4 2.1-.7 3.1-.9zm7-1.4c-1.2-.4-2.4-.6-3.6-.7l-.1 2c1.1.1 2.1.3 3.1.6l.6-1.9zm18.4 8.6c-1.1-.2-2.2-.5-3.3-.8l-.6 1.9c1.1.3 2.3.6 3.5.8l.4-1.9zM74.7-65.5c1.1 0 2.2.1 3.3.2l.2-2c-1.2-.1-2.4-.2-3.5-.2v2zm36.5 5.2c-.1.1-.3.2-.4.3l1.2 1.6c.2-.1.3-.3.5-.4.7-.6 1.5-1.1 2.2-1.6l-1.1-1.7c-.8.7-1.6 1.2-2.4 1.8zm12.6-4c1.1-.3 2.2-.5 3.3-.7l-.3-2c-1.2.2-2.3.4-3.5.8l.5 1.9zm-18.9 6.6l.2 2c1.2-.1 2.4-.4 3.6-.9l-.7-1.9c-1 .4-2.1.7-3.1.8zm28.4-156.2l-.1-2c-1.1 0-2.2 0-3.3-.1l-.2 2c.9.1 1.7.1 2.6.1h1zm-20.1-5.8l1.1-1.7c-.6-.4-1.2-.9-1.8-1.3-.3-.2-.6-.5-1-.7l-1.1 1.7c.3.2.6.4.8.6.6.4 1.3.9 2 1.4zm-23.8 2.5l-.9-1.8c-1 .5-2 .9-3.1 1.3l.7 1.9c1.1-.5 2.2-.9 3.3-1.4zM81.3-64.8c1.1.2 2.2.5 3.2.9l.6-1.9c-1.1-.4-2.3-.7-3.4-.9l-.4 1.9zm14.2-156.1l-1.2-1.6c-.9.7-1.8 1.3-2.8 1.9l1 1.7c1-.6 2-1.3 3-2zm-12.8 6l-.5-2c-1.1.3-2.2.5-3.3.6l.3 2c1.2-.1 2.4-.3 3.5-.6zm19.8 14.9v-11.6h-1.4c-.6 2.6-4.5 20.1-9.4 25.6 0 0 4.4 5 4.8 10.3h13.8c.4-5.3 4.8-10.3 4.8-10.3-4.9-5.5-8.8-23-9.4-25.6h-1.4v11.6c1 .4 1.7 1.4 1.7 2.5 0 1.5-1.2 2.7-2.7 2.7-1.5 0-2.7-1.2-2.7-2.7.2-1.1.9-2.1 1.9-2.5zM95-173.4h17v7.5H95zm-37.7 54.5l-3.8 3.8-3.8-3.8-.6.6-.6.6 3.8 3.8-3.8 3.8.6.6.6.6 3.8-3.8 3.8 3.8 1.2-1.2-3.8-3.8 3.8-3.8zm92.4 0l-1.2 1.2 3.8 3.8-3.8 3.8 1.2 1.2 3.8-3.8 3.8 3.8.6-.6.6-.6-3.8-3.8 3.8-3.8-.6-.6-.6-.6-3.8 3.8zm-8 285.2l1 1.7 3-1.8-1.1-1.7c-1 .6-1.9 1.2-2.9 1.8zm-69.4 5.8c1.1.5 2.1.9 3.2 1.3l.7-1.9c-1.1-.4-2.1-.8-3.1-1.3l-.8 1.9zm20.1 5.6c1.1.2 2.3.3 3.5.4l.2-2c-1.1-.1-2.3-.2-3.4-.4l-.3 2zM66 169c1 .6 2.1 1.1 3.1 1.6l.9-1.8c-1-.5-2-1-3-1.6l-1 1.8zm19.5 7.5c1.1.3 2.3.5 3.4.7l.4-2c-1.1-.2-2.2-.4-3.3-.7l-.5 2zm-6.7-1.9c1.1.4 2.2.7 3.3 1l.5-1.9c-1.1-.3-2.2-.6-3.2-1l-.6 1.9zm25.4 1.8h-1.3c-1.1 0-2.3 0-3.4-.1l-.1 2c1.2.1 2.3.1 3.5.1h3.3l-.1-2h-1.9zm5.3-.2l.1 2c1.2-.1 2.3-.2 3.5-.3l-.2-2c-1.1.1-2.3.2-3.4.3zm26.2-6.8l.9 1.8c1-.5 2.1-1 3.1-1.6l-.9-1.8c-1.1.7-2.1 1.2-3.1 1.6zm-6.3 2.6l.7 1.9c1.1-.4 2.2-.8 3.3-1.3l-.8-1.9c-1.1.5-2.1 1-3.2 1.3zm-13.1 3.4l.3 2c1.1-.2 2.3-.4 3.4-.6l-.4-2c-1.1.2-2.2.5-3.3.6zm6.6-1.4l.5 1.9c1.1-.3 2.3-.6 3.4-1l-.6-1.9c-1.1.4-2.2.8-3.3 1z"/><g fill="#2B292A"><path d="M43.3 82.6v10.9h12.6V82.6h3.4v26h-3.4V96.5H43.3v12.2H40v-26h3.3zm25.2 0v26h-3.4v-26h3.4zm5.9.4c1.6-.3 3.7-.5 6.4-.5 3.3 0 5.8.8 7.3 2.2 1.4 1.2 2.3 3.1 2.3 5.4 0 2.4-.7 4.2-2 5.6-1.8 1.9-4.7 2.9-8 2.9-1 0-1.9 0-2.7-.2v10.4h-3.4V83zm3.3 12.5c.7.2 1.7.3 2.8.3 4.1 0 6.5-2 6.5-5.6 0-3.4-2.4-5.1-6.1-5.1-1.5 0-2.6.1-3.2.3v10.1zm16.7 9.1c1.5.9 3.7 1.7 6 1.7 3.4 0 5.4-1.8 5.4-4.4 0-2.4-1.4-3.8-4.9-5.2-4.2-1.5-6.9-3.7-6.9-7.4 0-4.1 3.4-7.1 8.4-7.1 2.7 0 4.6.6 5.8 1.3l-.9 2.7c-.8-.5-2.6-1.2-4.9-1.2-3.6 0-4.9 2.1-4.9 3.9 0 2.4 1.6 3.6 5.2 5 4.4 1.7 6.6 3.8 6.6 7.6 0 4-3 7.5-9.1 7.5-2.5 0-5.3-.7-6.6-1.7l.8-2.7zm24.5-19.1H111v-2.9h19.3v2.9h-8v23.2h-3.4V85.5zm27.7 11h-10.1v9.4h11.3v2.8h-14.6v-26h14.1v2.8h-10.7v8.2h10.1v2.8zm5.5-13.5c1.7-.3 4.1-.5 6.4-.5 3.6 0 5.9.7 7.5 2.1 1.3 1.2 2 2.9 2 4.9 0 3.4-2.2 5.7-4.9 6.6v.1c2 .7 3.2 2.5 3.8 5.3.8 3.6 1.5 6.1 2 7.1h-3.5c-.4-.7-1-3-1.7-6.2-.8-3.6-2.2-4.9-5.2-5.1h-3.2v11.3h-3.4V83zm3.4 11.8h3.4c3.6 0 5.9-2 5.9-4.9 0-3.4-2.4-4.8-6-4.9-1.6 0-2.8.2-3.3.3v9.5zM71.1 136c0 2.8-1.8 4.4-4.9 4.4h-2.8v3.7h-2.1v-12.3h4.9c3.1-.1 4.9 1.5 4.9 4.2zm-2 0c0-1.6-1.1-2.4-3-2.4h-2.8v4.9h2.8c1.9 0 3-.8 3-2.5zm11.9 8.1l-2.3-3.7h-3.5v3.7h-2.1v-12.3h5c3.2 0 5 1.5 5 4.2 0 2-.9 3.4-2.6 4l2.8 4.1H81zm-2.8-5.6c1.9 0 3-.8 3-2.5 0-1.6-1.1-2.4-3-2.4h-2.9v4.9h2.9zm16.5-6.8v1.9H88v3.4h6v1.9h-6v3.4h7v1.9h-9v-12.3h8.7zm5.3 0l4.1 8.2 4.1-8.2h2.5V144h-1.9v-9.2l-3.9 7.9h-1.4l-3.9-7.9v9.2h-2v-12.3h2.4zm15.9 0V144h-2.1v-12.3h2.1zm8.4 10.6c2 0 3.3-1.2 3.3-3.3v-7.2h2.1v7.2c0 3.2-2 5.2-5.4 5.2s-5.4-2-5.4-5.2v-7.2h2.1v7.2c0 2.1 1.3 3.3 3.3 3.3zm10.8-10.6l4.1 8.2 4.1-8.2h2.5V144h-1.9v-9.2l-3.9 7.9h-1.4l-3.9-7.9v9.2h-2v-12.3h2.4zm-52.8 28.8c-.8.7-1.9 1.2-3 1.2-1.4 0-2.6-.9-3.5-2.3-3.3 0-5.8-2.4-5.8-5.5s2.5-5.5 5.8-5.5 5.8 2.4 5.8 5.5c0 2.5-1.6 4.5-3.9 5.3.6.6 1.2 1 1.8 1 .6 0 1.3-.3 2-.9l.8 1.2zm-6.4-2.7c2.1 0 3.9-1.7 3.9-3.9s-1.7-3.8-3.9-3.8-3.9 1.7-3.9 3.8c0 2.1 1.8 3.9 3.9 3.9zm12.4 0c1.8 0 2.9-1.1 2.9-2.9v-6.4H93v6.4c0 2.9-1.8 4.6-4.7 4.6s-4.8-1.7-4.8-4.6v-6.4h1.8v6.4c.1 1.8 1.2 2.9 3 2.9zm14.1-.9h-5.5l-1 2.5H94l4.8-10.9h1.9l4.8 10.9h-2l-1.1-2.5zm-.7-1.7l-2.1-4.8-2.1 4.8h4.2zm7-6.8v9.2h4.7v1.7h-6.6v-10.9h1.9zm8.3 0v10.9h-1.8v-10.9h1.8zm10.3 0v1.7h-3.5v9.3H122v-9.3h-3.4v-1.7h8.7zm6.1 7.3v3.6h-1.8v-3.6l-4.1-7.3h1.9l3.1 5.3 3.1-5.3h1.9l-4.1 7.3zm40.4-27.7c-.4 1.1-.8 2.1-1.3 3.2l1.8.8c.5-1.1.9-2.2 1.3-3.2l-1.8-.8zm-21.1 30.4l1.3 1.5c.9-.8 1.7-1.5 2.6-2.3l-1.4-1.5c-.8.8-1.6 1.5-2.5 2.3zm9.4-9.8l1.6 1.3c.7-.9 1.4-1.8 2.1-2.8l-1.6-1.2-2.1 2.7zm-14.7 14l1.2 1.6c.9-.7 1.9-1.4 2.8-2.1l-1.2-1.6c-1 .7-1.9 1.4-2.8 2.1zm10.2-8.9l1.4 1.4c.8-.8 1.6-1.7 2.4-2.6l-1.5-1.3c-.7.8-1.5 1.7-2.3 2.5zm8.5-10.6l1.7 1.1c.6-1 1.3-2 1.9-2.9l-1.7-1c-.6.9-1.2 1.9-1.9 2.8zM54.5 161.2c.9.7 1.8 1.5 2.7 2.2l1.2-1.6-2.7-2.1-1.2 1.5zm115.1-23.9l1.8 1c.6-1 1.1-2.1 1.6-3.1l-1.8-.9c-.5 1-1 2-1.6 3zm2.9-79.5l1.8-.8c-.5-1.1-.9-2.1-1.4-3.2l-1.8.9c.5 1 1 2.1 1.4 3.1zM60.1 165.4c1 .7 1.9 1.3 2.9 1.9l1.1-1.7c-1-.6-1.9-1.2-2.9-1.8l-1.1 1.6zM171.3 50.7c-.6-1-1.1-2-1.7-3l-1.7 1c.6 1 1.2 2 1.7 2.9l1.7-.9zm-54.9-39c-1.1-.2-2.3-.3-3.5-.5l-.2 2c1.1.1 2.3.3 3.4.5l.3-2zM32.6 62.8c.4-1.1.8-2.1 1.2-3.2l-1.9-.7-1.2 3.3 1.9.6zm63.1-49.7l-.2-2c-1.2.1-2.3.2-3.5.4l.3 2c1.1-.2 2.3-.3 3.4-.4zm-13.3 2.5l-.5-1.9c-1.1.3-2.2.7-3.3 1l.6 1.9c1-.4 2.1-.7 3.2-1zM39.9 47.5l-1.7-1.1-1.8 3 1.7 1c.6-.9 1.2-1.9 1.8-2.9zm-3.4 5.9l-1.8-.9c-.5 1-1 2.1-1.5 3.1l1.8.8c.5-.9 1-1.9 1.5-3zm12.8 103.1c.8.8 1.7 1.6 2.5 2.4l1.3-1.5c-.8-.8-1.7-1.5-2.5-2.3l-1.3 1.4zm73.9-143.4c-1.1-.3-2.3-.6-3.4-.8l-.4 2c1.1.2 2.2.5 3.3.8l.5-2zm6.7 2.1c-1.1-.4-2.2-.8-3.3-1.1L126 16c1.1.3 2.2.7 3.2 1.1l.7-1.9zM43.8 42l-1.6-1.2c-.7.9-1.4 1.9-2.1 2.8l1.6 1.1 2.1-2.7zm58.7-29.2v-2c-1.2 0-2.3 0-3.5.1l.1 2c1.1-.1 2.3-.1 3.4-.1zm6.9-1.9c-1.2-.1-2.3-.1-3.5-.2v2c1.1 0 2.3.1 3.4.2l.1-2zM58.2 27.7L57 26c-.9.7-1.8 1.4-2.7 2.2l1.3 1.5c.8-.7 1.7-1.4 2.6-2zm90.2-2.9c-.9-.7-1.9-1.3-2.9-2l-1.1 1.7c.9.6 1.9 1.3 2.8 1.9l1.2-1.6zm5.5 4.4c-.9-.8-1.8-1.5-2.7-2.2l-1.2 1.6c.9.7 1.8 1.4 2.6 2.2l1.3-1.6zm-11.4-8.1c-1-.6-2-1.2-3.1-1.7l-.9 1.8c1 .5 2 1.1 3 1.6l1-1.7zm21.1 18.1c-.7-.9-1.5-1.8-2.3-2.7l-1.5 1.3c.8.8 1.5 1.7 2.2 2.6l1.6-1.2zm-6.1-3.9l1.4-1.4c-.3-.3-.5-.6-.8-.8-.5-.5-1.1-1.1-1.7-1.6L155 33c.5.5 1.1 1 1.6 1.6.4.2.6.5.9.7zm-21.2-17.5c-1-.5-2.1-1-3.2-1.4l-.8 1.9c1 .4 2.1.9 3.1 1.4l.9-1.9zm-72.5 6l-1.1-1.7c-1 .6-2 1.3-2.9 1.9l1.1 1.7c1-.7 1.9-1.3 2.9-1.9zm12.1-6l-.7-1.9c-1.1.4-2.2.9-3.2 1.3l.8 1.8c1-.4 2.1-.8 3.1-1.2zm91.8 27c-.6-1-1.3-1.9-2-2.9l-1.6 1.2c.7.9 1.3 1.8 2 2.8l1.6-1.1zM53 32l-1.4-1.5c-.9.8-1.7 1.6-2.5 2.4l1.4 1.4c.8-.8 1.6-1.6 2.5-2.3zm16.7-11.5l-.9-1.8c-1 .5-2.1 1.1-3.1 1.6l1 1.8c1-.6 2-1.1 3-1.6zM48.1 36.8l-1.5-1.4c-.8.9-1.6 1.7-2.3 2.6l1.5 1.3c.8-.8 1.6-1.7 2.3-2.5zM89 14l-.4-2c-1.1.2-2.3.5-3.4.7l.5 2c1.1-.2 2.2-.5 3.3-.7zM44.6 151.4c.7.9 1.5 1.8 2.3 2.6l1.5-1.4c-.8-.8-1.5-1.7-2.3-2.5l-1.5 1.3zM35.2 133l-1.8.8c.5 1.1 1 2.1 1.5 3.1l1.8-.9-1.5-3zm1.4 7l1.8 3 1.7-1.1c-.6-1-1.2-1.9-1.8-2.9l-1.7 1zm-3.9-13.3l-1.9.7 1.2 3.3 1.9-.7c-.5-1.2-.9-2.3-1.2-3.3zm7.6 19.2c.7.9 1.4 1.9 2.1 2.8l1.6-1.2c-.7-.9-1.4-1.8-2-2.7l-1.7 1.1z"/><path d="M20.2 126c4 13.8 11.4 26.5 21.8 36.9 16.2 16.2 37.8 25.2 60.8 25.2h1.3c23 0 44.5-8.9 60.8-25.2 10.4-10.4 17.9-23.1 21.8-36.9h20.2l-6.5-31.1 6.5-31.7h-20.1c-4-13.8-11.4-26.5-21.8-36.9-16.2-16.2-37.8-25.2-60.8-25.2h-1.3c-23 0-44.5 8.9-60.8 25.2-10.5 10.4-17.9 23.1-21.9 36.9H0l7.5 30.6L0 126h20.2zm-9.1-32.2l-5-20.1h195.1L196.8 95l4.1 19.7H6.2l4.9-20.9zm91.7-89.2h1.3c22 0 42.7 8.6 58.3 24.2 9.8 9.8 16.8 21.6 20.7 34.5h-6.5c-.3-1-.7-2-1-2.9l-1.9.7c.3.7.5 1.5.8 2.2H23.8c3.9-12.9 10.9-24.7 20.7-34.5C60.1 13.1 80.8 4.6 102.8 4.6zm-79.9 62h179.8l-1 5H5.6l-1.2-5h18.5zm81.3 118h-1.3c-22 0-42.7-8.6-58.3-24.2-9.8-9.8-16.8-21.6-20.7-34.5h159.3c-3.9 12.9-10.9 24.7-20.7 34.5-15.6 15.6-36.3 24.2-58.3 24.2zm79.9-62.1H4.3l1.4-5.9h195.7l1.2 5.9h-18.5z"/><path d="M91.1 55.1c8.9-1 10.6-3.4 12.4-5.3 1.8 1.9 3.5 4.3 12.4 5.3 21 2.3 15.6-22.7 15.6-22.7-.2 4.3-8.2 8-15.6.9-4.7-4.5-9.5-3.3-12.4-1.8-2.9-1.5-7.7-2.7-12.4 1.8-7.4 7.1-15.5 3.4-15.6-.9-.1 0-5.4 25 15.6 22.7z"/></g><path fill="#2B292A" d="M187.5 298.6v-17.2l-83.1-48-.9-.5-84 48.5v17.2c-5.3.4-10.7.9-16 1.4l-1.7.2 5.7 60.1 1.7-.2c3.4-.3 6.9-.6 10.3-.9v19.2l83.1 48 .9.5 84-48.5v-19.2c3.4.3 6.9.6 10.3.9l1.7.2 5.7-60.1-1.7-.2c-5.4-.6-10.7-1-16-1.4zM31.6 288.4l71.9-41.5 71.9 41.5v9.3c-47.8-3.2-96-3.2-143.8 0v-9.3zm72.4-43.5l-.5-.3-73.9 42.7v10.6c-2.2.2-4.4.3-6.6.5v-14.9l80.5-46.5 80.5 46.5v14.9c-2.2-.2-4.4-.3-6.6-.5v-10.6L104 244.9zm80 131.5l-80.5 46.5L23 376.4v-17.5c2.2-.2 4.4-.3 6.6-.5v14.2L103 415l.5.3 73.9-42.7v-14.2c2.2.2 4.4.3 6.6.5v17.5zm-7.6-18h-1v13l-71.9 41.5-71.9-41.5v-13h-1.8c.3 0 .6 0 .8-.1.3 0 .7-.1 1-.1 47.8-3.4 96-3.4 143.8 0 .3.1.6.1 1 .2h.8-.8zm21.5-18.3l-1.6 16.4c-3-.3-5.9-.5-8.9-.8-.6 0-1.1-.1-1.7-.1-.6 0-1.1-.1-1.7-.1-2.2-.2-4.4-.3-6.6-.5-.3 0-.7-.1-1-.1-.3 0-.7-.1-1-.1-23.9-1.7-47.9-2.6-71.9-2.6-24 0-48 .9-71.9 2.6-.3 0-.7.1-1 .1-.3 0-.7.1-1 .1-2.2.2-4.4.3-6.6.5-.6 0-1.1.1-1.7.1-.6 0-1.1.1-1.7.1-3 .2-5.9.5-8.9.8l-1.6-16.4-3.5-36.9c1.2-.1 2.3-.2 3.5-.3 3.5-.3 7-.6 10.4-.9.6 0 1.1-.1 1.7-.1.6 0 1.1-.1 1.7-.1 1.6-.1 3.1-.2 4.7-.4.6 0 1.3-.1 1.9-.1v.1h2v-.3c47.8-3.2 96-3.2 143.8 0v.3h2v-.1c.6 0 1.3.1 1.9.1 1.6.1 3.2.2 4.7.4.6 0 1.1.1 1.7.1.6 0 1.1.1 1.7.1 3.5.3 7 .6 10.4.9 1.2.1 2.3.2 3.5.3l-3.3 36.9z"/><path fill="#2B292A" d="M122.8 281.9l-17.4-25-1.9-2.8-2 2.8-17.3 25 3.6 9.4h31.4zm-52.3-1.4l-1.9-3.8-1.9 3.8-4.1.6 3 3-.7 4.2 3.7-2 3.8 2-.8-4.2 3.1-3zm64.1 7.8l3.8-2 3.7 2-.7-4.2 3-3-4.2-.6-1.8-3.8-1.9 3.8-4.2.6 3 3zm-110.5 35l-1.1 1.1-1.8 1.8-1.7 1.7-1.4 1.4 1.4 1.5 1.7 1.7 1.8 1.7 1.1 1.1 5.5-5.5.5-.5-.5-.5zm161.6 3.7l-1.7-1.7-2-2-4.6 4.6-1 1.1-.4.3.4.4 1 1 4.6 4.6 2-2 1.7-1.7 1.8-1.7.5-.6-.5-.6zM41.2 348.1c-1.3-14-2.6-27.9-4-41.9l10.2-.9c2.4-.2 4.4-.2 6.1.1 1.7.2 3.2.8 4.5 1.5 1.3.8 2.3 1.9 3 3.3.7 1.4 1.1 3.2 1.2 5.3.2 2.6-.1 4.8-.8 6.5-.7 1.7-2 3-3.8 3.9 2.5 6.8 4.9 13.5 7.2 20.3-2.6.2-5.1.3-7.7.5-2.1-6.3-4.3-12.5-6.5-18.8-1.2.1-2.3.2-3.5.3.5 6.4 1.1 12.8 1.6 19.1-2.4.3-5 .6-7.5.8zm5.6-24.7c.6-.1 1.3-.1 1.9-.2 2.3-.2 4-.8 4.9-1.8.9-1 1.3-2.7 1.1-5-.2-2.2-.7-3.8-1.6-4.7-.9-.9-2.6-1.3-4.9-1.1-.8.1-1.6.1-2.4.2.3 4.2.7 8.4 1 12.6zM70 346l-2.1-42c6.2-.3 12.5-.6 18.7-.7 0 1.8.1 3.6.1 5.4l-10.5.3c.2 4 .3 8 .5 12.1 2.7-.1 5.4-.2 8.2-.3 0 1.8.1 3.6.1 5.4l-8.1.3c.2 4.6.4 9.2.5 13.9l10.2-.3c0 1.8.1 3.5.1 5.3-5.9.1-11.8.3-17.7.6zm26.2-.8c-.1-12.1-.3-24.3-.4-36.4-2.5 0-5 .1-7.4.1 0-1.9-.1-3.8-.1-5.7 7.6-.2 15.3-.2 22.9-.1 0 1.9 0 3.8-.1 5.7h-7.2v36.4h-7.7zm17.9 0l.6-42c3.4.1 6.8.1 10.3.2 2.4.1 4.4.3 6.1.8 1.7.4 3.1 1.1 4.3 2 1.2.9 2.1 2.1 2.6 3.6s.8 3.3.7 5.4c-.1 2.6-.7 4.8-1.5 6.4-.9 1.6-2.3 2.8-4.2 3.5 1.7 7 3.4 14 5 21-2.6-.1-5.1-.2-7.7-.3-1.4-6.5-2.9-12.9-4.4-19.4-1.2 0-2.3-.1-3.5-.1-.2 6.4-.3 12.8-.5 19.2-2.7-.2-5.2-.2-7.8-.3zm8.3-23.9c.6 0 1.3 0 1.9.1 2.4.1 4-.4 5.1-1.3 1-.9 1.6-2.6 1.7-4.9.1-2.2-.3-3.9-1.1-4.9-.8-1-2.4-1.5-4.8-1.6-.8 0-1.6 0-2.4-.1-.1 4.3-.3 8.5-.4 12.7zm32 26.3c-4.3-.3-7.3-1.7-9.1-4.2-1.7-2.5-2.5-6-2.2-10.5.3-5.2.6-10.3.9-15.5.1-2.2.5-4.1 1-5.8.5-1.6 1.3-3 2.4-4.1 1.1-1.1 2.5-2 4.2-2.4 1.7-.5 3.7-.6 6.1-.5 4.6.4 7.8 1.8 9.6 4.3 1.8 2.5 2.5 6 2 10.4-.5 5.2-1 10.3-1.5 15.5-.2 2.2-.6 4.1-1.2 5.7-.6 1.6-1.4 3-2.5 4.1-1.1 1.1-2.4 1.9-4 2.4-1.6.6-3.5.8-5.7.6zm-1.5-6.2c.5.3 1.2.4 1.9.5.7.1 1.4 0 1.9-.2s1-.4 1.3-.8c.3-.3.6-.8.9-1.3.2-.6.4-1.1.5-1.7.1-.6.2-1.2.3-2 .5-6.3 1-12.7 1.6-19 .1-1 .1-1.9 0-2.5 0-.7-.2-1.3-.5-2-.3-.6-.7-1.1-1.3-1.5-.6-.3-1.4-.6-2.3-.6-1-.1-1.8 0-2.4.3-.7.2-1.2.7-1.5 1.2-.3.6-.6 1.2-.7 1.9-.2.7-.3 1.5-.3 2.5-.4 6.4-.9 12.7-1.3 19.1-.1.8-.1 1.5-.1 2.1 0 .6.1 1.2.2 1.7.1.6.4 1.1.6 1.4.3.4.7.7 1.2.9zm-90.3 27.2H64v3.5c-1 .7-2.4 1.2-3.7 1.2-2.8 0-5-2.1-5-4.8 0-2.7 2.2-4.8 5.1-4.8 1.4 0 2.7.5 3.7 1.3l-.9 1.2c-.7-.7-1.8-1.1-2.8-1.1-1.9 0-3.5 1.5-3.5 3.4s1.5 3.4 3.5 3.4c.7 0 1.5-.2 2.2-.7v-2.6zm7.7 3.3c1.6 0 2.5-1 2.5-2.6v-5.6h1.6v5.6c0 2.5-1.6 4-4.1 4s-4.2-1.5-4.2-4v-5.6h1.6v5.6c0 1.6 1 2.6 2.6 2.6zm12.3-.8h-4.8l-.9 2.2h-1.7l4.2-9.5H81l4.2 9.5h-1.7l-.9-2.2zm-.6-1.4l-1.8-4.2-1.8 4.2H82zm10.5 3.5l-1.7-2.9h-2.7v2.9h-1.6v-9.5h3.9c2.4 0 3.8 1.2 3.8 3.3 0 1.5-.7 2.6-2 3.1l2.1 3.2h-1.8zm-2.2-4.3c1.5 0 2.3-.6 2.3-1.9 0-1.3-.8-1.9-2.3-1.9H88v3.8h2.3zm12.1 2.2h-4.8l-.9 2.2H95l4.2-9.5h1.6l4.2 9.5h-1.7l-.9-2.2zm-.6-1.4l-1.8-4.2-1.8 4.2h3.6zm6.1-6l5.1 6.8v-6.8h1.6v9.5H113l-5.1-6.8v6.8h-1.6v-9.5h1.6zm15.7 0v1.4h-3v8.1H119v-8.1h-3v-1.4h7.6zm8.2 0v1.4h-5.2v2.6h4.7v1.4h-4.7v2.6h5.4v1.4h-7v-9.5h6.8zm8.9 0v1.4h-5.2v2.6h4.7v1.4h-4.7v2.6h5.4v1.4h-7v-9.5h6.8zm11 4.8c0 2.7-2.1 4.8-5 4.8h-3.9v-9.5h3.9c2.9-.1 5 1.9 5 4.7zm-1.6 0c0-1.9-1.5-3.3-3.3-3.3h-2.3v6.6h2.3c1.8 0 3.3-1.4 3.3-3.3zm-50.8 12.6v1.1h-3.8v1.9h3.4v1h-3.4v1.9h3.9v1.1h-5.1v-7h5zm3.8 1.1c-.7 0-1.1.3-1.1.7 0 1.5 3.8.7 3.8 3.2 0 1.2-1.1 2-2.6 2-1.1 0-2.1-.4-2.9-1.1l.5-1c.7.7 1.6 1 2.4 1 .8 0 1.3-.3 1.3-.8 0-1.6-3.8-.7-3.8-3.2 0-1.2 1-1.9 2.5-1.9.9 0 1.8.3 2.4.7l-.5 1c-.7-.4-1.5-.6-2-.6zm8.8-1.1v1.1h-2.2v5.9h-1.2v-5.9h-2.2v-1.1h5.6zm1.2 6.4c0 .4-.3.7-.6.7s-.6-.3-.6-.7c0-.4.3-.6.6-.6s.6.2.6.6zm-18.2 5.6v7h-1.2v-5.9h-1.5v-1.1h2.7zm5 6c1.3 0 2-1 1.9-2.5-.4.7-1 1-1.9 1-1.4 0-2.2-.9-2.2-2.2 0-1.4 1-2.3 2.4-2.3 1.8 0 2.8 1.3 2.8 3.4 0 2.2-1.2 3.7-3 3.7-.7 0-1.5-.2-2.1-.5l.5-.9c.5.2 1.1.3 1.6.3zm-1.1-3.7c0 .8.5 1.3 1.4 1.3.9 0 1.5-.6 1.5-1.3 0-.6-.4-1.3-1.4-1.3-.9-.1-1.5.4-1.5 1.3zm7.3 3.7c1.3 0 2-1 1.9-2.5-.4.7-1 1-1.9 1-1.4 0-2.2-.9-2.2-2.2 0-1.4 1-2.3 2.4-2.3 1.8 0 2.8 1.3 2.8 3.4 0 2.2-1.2 3.7-3 3.7-.7 0-1.5-.2-2.1-.5l.5-.9c.5.2 1.1.3 1.6.3zm-1.1-3.7c0 .8.5 1.3 1.4 1.3.9 0 1.5-.6 1.5-1.3 0-.6-.4-1.3-1.4-1.3-.9-.1-1.5.4-1.5 1.3zm10.4-2.3v.9l-2.9 6.1h-1.2l2.9-5.9h-3v1h-1v-2h5.2z"/><path fill="#FFF" d="M98.6 286.7v-18.2h4.2c1 0 1.8.1 2.5.2.7.2 1.3.4 1.8.8s.9.9 1.1 1.5c.3.6.4 1.4.4 2.3 0 1.1-.2 2.1-.5 2.8-.3.7-.9 1.3-1.7 1.6l2.5 9h-3.3l-2.2-8.3h-1.5v8.3h-3.3zm3.3-10.4h.8c1 0 1.7-.2 2.1-.6.4-.4.6-1.1.6-2.1s-.2-1.7-.5-2.1c-.4-.4-1-.6-2-.6h-1v5.4z"/></svg>