<svg xmlns="http://www.w3.org/2000/svg" viewBox="0 0 204.8 207.5"><path fill="#2B292A" d="M101.4 77.6l2.3-3.1 20.7-27.4-4.3-10.3H82.7l-4.3 10.3 20.7 27.4zm-66.3 45.7L27.5 86h6l4.9 25.9L43 86h6.2l-7.6 37.3h-6.5zm18.2 0V86.1H60v37.3h-6.7zm12.4 0V86.1h4.7l9.1 21.1V86.1h5.6v37.3h-4.4l-9.2-22.2v22.2h-5.8zm28.7 0V91.1h-6.2v-5h19.1v5h-6v32.2h-6.9zm13.6 0l7.6-37.3h7.1l7.6 37.3H124l-1.5-8.7H116l-1.5 8.7H108zm8.7-13h5L119.2 95l-2.5 15.3zm26.4 13.5c-3.5 0-6.1-1.1-7.6-3.3-1.6-2.2-2.3-5.4-2.3-9.6V98.8c0-2.1.2-4 .5-5.5.3-1.6.9-2.9 1.7-4.1s1.9-2 3.3-2.6c1.4-.6 3.1-.9 5.1-.9 3.7 0 6.3.9 7.9 2.7 1.6 1.8 2.4 4.5 2.4 8.2v1.8h-6.5v-1.9c0-.8 0-1.5-.1-2 0-.5-.1-1.1-.3-1.6-.1-.5-.3-.9-.6-1.2s-.6-.5-1.1-.7-1-.3-1.7-.3c-.5 0-1 .1-1.4.2-.4.1-.7.3-1 .5-.3.2-.5.5-.7.8-.2.3-.3.7-.4 1-.1.3-.2.7-.2 1.2-.1.5-.1 1-.1 1.3v16.5c0 2.2.3 3.9.8 4.9.6 1 1.6 1.6 3.2 1.6.8 0 1.5-.2 2-.5s1-.8 1.3-1.4c.3-.6.5-1.3.7-2.1s.2-1.8.2-2.9v-3.1h-4v-4.4h10.1v18.9h-4.4l-.5-3.8c-1.1 3-3.2 4.4-6.3 4.4zm16.4-.5V86.1H175v4.8h-8.8v10.7h7v4.8h-7v12.3h8.9v4.7h-15.6zm-105.6 9.4v1.7h-6v3h5.4v1.7h-5.4v3H54v1.7h-8v-11h7.9zm5.9 1.7c-1.1 0-1.8.4-1.8 1.2 0 2.4 6 1.1 5.9 5.1 0 2-1.7 3.2-4.2 3.2-1.7 0-3.4-.7-4.5-1.8l.8-1.6c1.1 1 2.6 1.6 3.7 1.6 1.3 0 2.1-.5 2.1-1.3 0-2.5-6-1.1-6-5 0-1.9 1.6-3.1 4-3.1 1.4 0 2.8.5 3.9 1.1l-.8 1.6c-1.1-.7-2.3-1-3.1-1zm13.9-1.7v1.7h-3.5v9.4h-1.9v-9.4h-3.5v-1.7h8.9zm7.6 8.6h-5.6l-1.1 2.5h-1.9l4.9-11h1.9l4.8 11h-2l-1-2.5zm-.7-1.7l-2.1-4.9-2.1 4.9h4.2zm13.7-4.1c0 1.2-.7 2.2-1.9 2.5 1.5.3 2.4 1.3 2.4 2.8 0 1.9-1.5 3-4 3h-4.9v-11h4.8c2.2-.1 3.6 1 3.6 2.7zm-1.9.3c0-.9-.7-1.4-1.9-1.4h-2.8v2.9h2.8c1.2 0 1.9-.5 1.9-1.5zm.4 4.7c0-1-.9-1.6-2.3-1.6h-2.8v3.2h2.8c1.5 0 2.3-.6 2.3-1.6zm6-7.8v9.4h4.8v1.7H97v-11h1.8zm8.4 0v11h-1.9v-11h1.9zm6.4 1.7c-1.1 0-1.8.4-1.8 1.2 0 2.4 6 1.1 5.9 5.1 0 2-1.7 3.2-4.2 3.2-1.7 0-3.4-.7-4.5-1.8l.8-1.6c1.1 1 2.6 1.6 3.7 1.6 1.3 0 2.1-.5 2.1-1.3 0-2.5-6-1.1-6-5 0-1.9 1.6-3.1 4-3.1 1.4 0 2.8.5 3.9 1.1l-.8 1.6c-1-.7-2.2-1-3.1-1zm8.2-1.7v4.8h5.9v-4.8h1.9v11h-1.9v-4.6h-5.9v4.6h-1.9v-11h1.9zm18.5 0v1.7h-6v3h5.4v1.7h-5.4v3h6.2v1.7h-8.1v-11h7.9zm12.7 5.5c0 3.2-2.4 5.5-5.8 5.5h-4.5v-11h4.5c3.4 0 5.8 2.3 5.8 5.5zm-1.9.1c0-2.3-1.7-3.9-3.9-3.9h-2.6v7.7h2.7c2.2 0 3.8-1.6 3.8-3.8zm-63.3 13.3v11.1H86v-9.4h-2.4v-1.7h4.2zm8 9.6c2.1 0 3.1-1.6 3.1-4-.6 1-1.6 1.6-3 1.6-2.2 0-3.5-1.4-3.5-3.5 0-2.3 1.5-3.7 3.9-3.7 2.8 0 4.5 2 4.5 5.4 0 3.5-1.8 5.8-4.7 5.8-1.1 0-2.4-.3-3.3-.8l.7-1.4c.5.4 1.4.6 2.3.6zm-1.8-5.9c0 1.3.8 2.1 2.1 2.1 1.5 0 2.4-1 2.4-2.1 0-1-.7-2.1-2.3-2.1-1.3-.1-2.2.7-2.2 2.1zm11.5 5.9c2.1 0 3.1-1.6 3.1-4-.6 1-1.6 1.6-3 1.6-2.2 0-3.5-1.4-3.5-3.5 0-2.3 1.5-3.7 3.9-3.7 2.8 0 4.5 2 4.5 5.4 0 3.5-1.8 5.8-4.7 5.8-1.1 0-2.4-.3-3.3-.8l.7-1.4c.6.4 1.5.6 2.3.6zm-1.7-5.9c0 1.3.8 2.1 2.1 2.1 1.5 0 2.4-1 2.4-2.1 0-1-.7-2.1-2.3-2.1-1.3-.1-2.2.7-2.2 2.1zm16.5-3.7v1.4l-4.7 9.6h-2l4.6-9.4h-4.7v1.5h-1.7v-3.2h8.5z"/><path fill="#FFF" d="M99.1 64.9l-4.2-20.8h3.4l2.7 14.5 2.6-14.5h3.4l-4.2 20.8h-3.7z"/><path fill="#2B292A" d="M30.6 176.1c9.2 9.2 19.9 16.4 31.8 21.5 12.3 5.2 25.5 7.9 39 7.9s26.6-2.6 39-7.9c11.9-5 22.6-12.3 31.8-21.5s16.4-19.9 21.5-31.8c5.2-12.3 7.9-25.5 7.9-39s-2.6-26.6-7.9-39c-5-11.9-12.3-22.6-21.5-31.8S152.3 18.1 140.4 13c-12.3-5.2-25.5-7.9-39-7.9s-26.6 2.6-39 7.9c-11.9 5-22.6 12.3-31.8 21.5S14.2 54.4 9.1 66.3c-5.2 12.3-7.9 25.5-7.9 39s2.6 26.6 7.9 39c5.1 11.9 12.3 22.6 21.5 31.8zM101.4 8.6c25.8 0 50.1 10.1 68.4 28.3s28.3 42.5 28.3 68.4c0 25.8-10.1 50.1-28.3 68.4S127.2 202 101.4 202c-25.8 0-50.1-10.1-68.4-28.3S4.7 131.1 4.7 105.3c0-25.8 10.1-50.1 28.3-68.4S75.6 8.6 101.4 8.6z"/><path fill="#2B292A" d="M16.2 105.3c0 22.8 8.9 44.2 25 60.3 16.1 16.1 37.5 25 60.3 25 22.8 0 44.2-8.9 60.3-25 16.1-16.1 25-37.5 25-60.3 0-22.8-8.9-44.2-25-60.3-16.1-16.1-37.5-25-60.3-25-22.8 0-44.2 8.9-60.3 25-16.2 16.1-25 37.5-25 60.3zm85.2-81.8c21.8 0 42.4 8.5 57.8 24 15.4 15.4 24 36 24 57.8s-8.5 42.4-24 57.8c-15.4 15.4-36 24-57.8 24-21.8 0-42.4-8.5-57.8-24-15.4-15.4-24-36-24-57.8s8.5-42.4 24-57.8c15.4-15.5 36-24 57.8-24zm49.4 156.4l1.1 1.7c1-.6 1.9-1.3 2.8-2l-1.2-1.6c-.8.6-1.7 1.2-2.7 1.9zM93 16.2l-.2-2c-1.1.1-2.3.2-3.4.4l.3 2c1-.1 2.2-.3 3.3-.4zm91.5 122.3l1.9.7c.4-1.1.8-2.2 1.2-3.2l-1.9-.7c-.4 1.1-.8 2.2-1.2 3.2zm-71-123.9c-1.1-.2-2.3-.3-3.4-.4l-.2 2c1.1.1 2.2.2 3.4.4l.2-2zm-6.9-.6c-1.1-.1-2.3-.1-3.5-.1v2c1.1 0 2.3.1 3.4.1l.1-2zm13.7 1.8c-1.1-.2-2.3-.5-3.4-.6l-.3 2 3.3.6.4-2zm61.4 128.9l1.8.9c.5-1 1-2.1 1.5-3.1l-1.8-.8c-.5.9-1 2-1.5 3zm-15.3 22.1l1.5 1.4c.8-.8 1.6-1.7 2.3-2.6l-1.5-1.3c-.8.9-1.6 1.7-2.3 2.5zM86.3 17.1l-.3-2c-1.1.2-2.3.4-3.4.6l.4 2 3.3-.6zm84.5 144.6l1.6 1.3 2.1-2.7-1.6-1.2c-.7.9-1.4 1.8-2.1 2.6zm-14.5 14.2l1.2 1.6c.9-.7 1.8-1.4 2.7-2.2l-1.3-1.5c-.8.7-1.7 1.4-2.6 2.1zm5.2-4.4l1.4 1.5c.9-.8 1.7-1.6 2.5-2.4l-1.4-1.4c-.8.8-1.7 1.6-2.5 2.3zm17-20.9l1.7 1c.6-1 1.2-2 1.7-3l-1.8-1c-.4 1.1-1 2.1-1.6 3zM73.2 20.4l-.6-1.9-3.3 1.2.7 1.9c1-.5 2.1-.9 3.2-1.2zm101.7 135.9l1.6 1.1c.7-.9 1.3-1.9 1.9-2.9l-1.7-1.1c-.5 1.1-1.2 2-1.8 2.9zM79.7 18.5l-.5-1.9-3.3.9.6 1.9c1-.3 2.1-.6 3.2-.9zm20-2.7v-2c-1.1 0-2.3.1-3.5.1l.1 2c1.2 0 2.3 0 3.4-.1zm88.9 69.4l2-.5c-.3-1.1-.5-2.2-.8-3.4l-1.9.5c.2 1.2.4 2.3.7 3.4zm2 13.3l2-.1c-.1-1.1-.2-2.3-.3-3.4l-2 .2.3 3.3zm-.8-6.7l2-.3c-.2-1.1-.4-2.3-.6-3.4l-2 .4c.3 1.1.5 2.2.6 3.3zm-3-13.2l1.9-.6c-.3-1.1-.7-2.2-1.1-3.3l-1.9.7c.4 1.1.8 2.1 1.1 3.2zm-2.3-6.4l1.9-.7c-.4-1.1-.9-2.1-1.3-3.2l-1.8.8c.4 1 .8 2.1 1.2 3.1zm-2.7-6.2l1.8-.9c-.5-1-1-2.1-1.6-3.1l-1.8 1c.6 1 1.1 2 1.6 3zm6.7 59.6l2 .5c.3-1.1.5-2.3.7-3.4l-2-.4c-.2 1.1-.4 2.2-.7 3.3zm1.3-6.6l2 .3c.2-1.1.3-2.3.5-3.4l-2-.2c-.2 1-.3 2.2-.5 3.3zm.8-6.8l2 .2c.1-1.1.2-2.3.2-3.5l-2-.1c-.1 1.2-.1 2.3-.2 3.4zm.3-6.9v.2h2v-.2c0-1.1 0-2.3-.1-3.5l-2 .1c0 1.1.1 2.3.1 3.4zM152 29.1c-1-.6-1.9-1.3-2.9-1.9l-1 1.7c1 .6 1.9 1.2 2.8 1.8l1.1-1.6zm-24.9-11.6l-3.3-.9-.5 1.9 3.3.9.5-1.9zm19 8c-1-.6-2-1.1-3-1.6l-.9 1.8c1 .5 2 1 3 1.6l.9-1.8zm11.5 7.6c-.9-.7-1.8-1.4-2.8-2.1l-1.2 1.6c.9.7 1.8 1.3 2.7 2l1.3-1.5zm-24-13.4l-3.3-1.2-.6 1.9c1.1.4 2.1.7 3.2 1.1l.7-1.8zM180.3 59l-1.8-3-1.7 1.1c.6.9 1.2 1.9 1.8 2.9l1.7-1zM140 22.3c-1-.5-2.1-1-3.2-1.4l-.8 1.9c1 .4 2.1.9 3.1 1.4l.9-1.9zm22.9 15.3c-.8-.8-1.7-1.5-2.6-2.3l-1.3 1.5c.9.7 1.7 1.5 2.5 2.2l1.4-1.4zm13.7 15.6c-.7-.9-1.3-1.9-2-2.8l-1.6 1.2c.7.9 1.3 1.8 2 2.7l1.6-1.1zm-4.2-5.5c-.7-.9-1.5-1.8-2.2-2.6l-1.5 1.3c.7.8 1.5 1.7 2.2 2.6l1.5-1.3zm-4.5-5.3c-.8-.8-1.6-1.7-2.4-2.5l-1.4 1.4 2.4 2.4 1.4-1.3zM79 194c1.1.3 2.2.5 3.4.8l.4-2c-1.1-.2-2.2-.5-3.3-.8l-.5 2zM17.1 75.3l-1.9-.7c-.4 1.1-.8 2.2-1.1 3.3l1.9.6c.3-1 .7-2.1 1.1-3.2zm-2 6.5l-1.9-.5c-.3 1.1-.6 2.2-.8 3.4l2 .5c.1-1.2.4-2.3.7-3.4zm57.2 110.3c1.1.4 2.2.7 3.3 1l.6-1.9c-1.1-.3-2.2-.7-3.2-1l-.7 1.9zM13.5 88.4l-2-.4c-.2 1.1-.4 2.3-.6 3.4l2 .3.6-3.3zm52.4 101.2c1.1.4 2.1.9 3.2 1.3l.7-1.9c-1-.4-2.1-.8-3.1-1.3l-.8 1.9zm-54-84.4c0-1.1 0-2.3.1-3.4l-2-.1c0 1.1-.1 2.3-.1 3.5h2zm3.1 23.4l-1.9.5c.3 1.1.6 2.2 1 3.3l1.9-.6c-.4-1-.7-2.1-1-3.2zm9.2 25.8c.6 1 1.3 1.9 1.9 2.9l1.7-1.1c-.6-.9-1.3-1.9-1.9-2.8l-1.7 1zM19.6 69l-1.8-.8c-.5 1-.9 2.1-1.3 3.2l1.9.7c.3-1 .7-2 1.2-3.1zm125.5 114.4l1 1.8 3-1.8-1-1.7c-1.1.6-2.1 1.1-3 1.7zM22.6 63l-1.8-1c-.5 1-1.1 2-1.6 3.1l1.8.9c.5-1 1-2 1.6-3zm63.2 132.4c1.1.2 2.3.4 3.4.5l.3-2c-1.1-.1-2.2-.3-3.3-.5l-.4 2zm-32.2-12.1l3 1.8 1-1.8c-1-.5-2-1.1-2.9-1.7l-1.1 1.7zm-11.2-8.1c.9.7 1.8 1.5 2.7 2.2l1.2-1.6c-.9-.7-1.8-1.4-2.6-2.1l-1.3 1.5zM17 135.1l-1.9.7c.4 1.1.8 2.2 1.2 3.2l1.9-.7c-.4-1.1-.8-2.1-1.2-3.2zm20.3 35.4c.8.8 1.7 1.6 2.5 2.4l1.4-1.5c-.8-.8-1.7-1.5-2.5-2.3l-1.4 1.4zM13.5 122l-2 .4c.2 1.1.5 2.3.7 3.4l2-.4c-.3-1.1-.5-2.3-.7-3.4zm-1-6.7l-2 .2c.1 1.1.3 2.3.4 3.4l2-.3c-.1-1-.3-2.1-.4-3.3zm47.1 71.4c1 .5 2.1 1 3.1 1.5l.9-1.8-3-1.5-1 1.8zM12 108.6l-2 .1c0 1.1.1 2.3.2 3.5l2-.1c-.1-1.3-.2-2.4-.2-3.5zm16.2 51.5l2.1 2.7 1.6-1.3-2.1-2.7-1.6 1.3zm-7.5-11.6c.5 1 1.1 2 1.7 3l1.7-1c-.6-1-1.1-2-1.7-3l-1.7 1zm27.2 31c.9.7 1.9 1.3 2.8 2l1.1-1.7c-.9-.6-1.9-1.3-2.8-1.9l-1.1 1.6zm-28.4-38.1l-1.8.8c.5 1.1 1 2.1 1.5 3.1l1.8-.9c-.5-.9-1-2-1.5-3zm-7-46.3l-2-.2c-.1 1.1-.2 2.3-.3 3.4l2 .2c.1-1.2.2-2.3.3-3.4zm26.2-53.7L37.3 40c-.8.8-1.6 1.6-2.4 2.5l1.5 1.4c.7-.9 1.5-1.7 2.3-2.5zM139 186.5l.8 1.8c1-.5 2.1-1 3.1-1.5l-.9-1.8c-.9.5-2 1-3 1.5zM34.1 46.3L32.6 45c-.8.9-1.5 1.8-2.2 2.6l1.6 1.3c.6-.8 1.4-1.7 2.1-2.6zm152.7 85.8l1.9.6c.3-1.1.7-2.2 1-3.3l-1.9-.5c-.4 1.1-.7 2.2-1 3.2zm-54 57l.7 1.9c1.1-.4 2.2-.8 3.2-1.3l-.8-1.9c-1 .5-2.1.9-3.1 1.3zm-6.5 2.1l.6 1.9c1.1-.3 2.2-.7 3.3-1l-.6-1.9c-1.1.4-2.2.7-3.3 1zM29.8 51.6l-1.6-1.2c-.7.9-1.4 1.9-2 2.8l1.7 1.1c.6-.9 1.3-1.8 1.9-2.7zm30.8-26l-.9-1.8c-1 .5-2.1 1.1-3.1 1.6l1 1.8c1-.5 2-1.1 3-1.6zm6.2-2.8l-.8-1.9c-1.1.4-2.1.9-3.2 1.4l.8 1.8c1.1-.4 2.2-.9 3.2-1.3zM32.5 165.5c.8.9 1.5 1.7 2.3 2.6l1.5-1.4c-.8-.8-1.5-1.7-2.3-2.5l-1.5 1.3zM49.1 32.7l-1.2-1.6c-.9.7-1.9 1.4-2.8 2.1l1.2 1.6c1-.8 1.9-1.4 2.8-2.1zm5.6-3.8l-1-1.7c-1 .6-2 1.2-2.9 1.9l1.1 1.7c.9-.7 1.9-1.3 2.8-1.9zm-10.9 8l-1.3-1.5c-.9.7-1.8 1.5-2.6 2.3l1.4 1.5c.7-.9 1.6-1.6 2.5-2.3zm48.8 159.4c1.1.1 2.3.2 3.5.3l.1-2c-1.1-.1-2.3-.2-3.4-.3l-.2 2zM26 57.2l-1.7-1.1c-.6 1-1.2 2-1.8 2.9l1.7 1c.6-.9 1.2-1.9 1.8-2.8zm73.6 137.5v2h3.5v-2c-1.3.1-2.4.1-3.5 0zm13.5-.7l.3 2c1.1-.1 2.3-.3 3.4-.5l-.3-2c-1.2.2-2.3.4-3.4.5zm-6.8.6l.1 2c1.1-.1 2.3-.1 3.5-.3l-.2-2c-1.1.2-2.2.3-3.4.3zm13.5-1.7l.4 2c1.1-.2 2.3-.5 3.4-.8l-.5-1.9c-1.1.2-2.2.4-3.3.7z"/><path fill="#2B292A" d="M103.6 171.5l-2.2-4.4-2.2 4.4-4.9.7 3.5 3.5-.8 4.9 4.4-2.3 4.4 2.3-.8-4.9 3.5-3.5zM76.7 57.2v-1.1H63.9v2.3h12.8zm0 9.4v-1.1H53.9v2.2h22.8zm62.2-9.4v-1.1h-12.8v2.3h12.8zm10 9.4v-1.1h-22.8v2.2h22.8z"/></svg>