<svg xmlns="http://www.w3.org/2000/svg" viewBox="0 0 206.7 200.7"><path d="M32.3 108.7c-1.4 0-2.6-.2-3.6-.5s-1.9-.8-2.6-1.4c-.7-.6-1.2-1.4-1.7-2.3-.4-.9-.7-1.9-.9-2.9-.2-1-.3-2.2-.3-3.5v-11c0-1.4.1-2.6.3-3.6s.5-2 .9-2.9c.4-.9 1-1.6 1.6-2.2.7-.6 1.5-1 2.6-1.4 1-.3 2.2-.5 3.6-.5 1.6 0 2.9.2 4 .6s2 1 2.6 1.8c.6.8 1.1 1.8 1.4 2.8.3 1.1.4 2.3.4 3.8v2.7h-5.5v-2.7c0-1.6-.1-2.6-.2-3.2-.3-1.1-1.1-1.6-2.4-1.7h-.3c-.5 0-.9.1-1.3.2s-.7.3-.9.5c-.2.2-.4.5-.6.8-.1.3-.2.6-.3 1.1-.1.4-.1.9-.1 1.2v14.7c0 1.8.2 3.2.7 3.9.5.8 1.3 1.2 2.5 1.2.4 0 .8 0 1.1-.1.3-.1.6-.2.8-.4.2-.1.4-.4.5-.6.1-.3.3-.5.3-.8.1-.2.1-.6.2-1 0-.4.1-.8.1-1.1v-4h5.5v2.6c0 1.2-.1 2.2-.2 3.2-.2.9-.4 1.8-.8 2.6s-.9 1.5-1.5 2.1c-.6.5-1.4 1-2.4 1.3-1.1.5-2.2.7-3.5.7zm12.4-.4V76.8H52c1.7 0 3.1.1 4.3.4 1.2.3 2.2.7 3.1 1.4s1.5 1.5 2 2.6.7 2.4.7 4c0 2-.3 3.6-.9 4.8-.6 1.3-1.6 2.2-2.9 2.7l4.4 15.5h-5.8L53 93.9h-2.5v14.4h-5.8zm5.8-18h1.4c1.7 0 2.9-.4 3.6-1.1.7-.7 1.1-2 1.1-3.7 0-1.7-.3-2.9-.9-3.6-.6-.7-1.8-1.1-3.4-1.1h-1.7v9.5zm15.8 18V76.8h13.2v4H72v9h5.9v4H72v10.4h7.5v4H66.3zm14.9 0l6.4-31.5h6l6.4 31.5h-5.3l-1.3-7.3H88l-1.3 7.3h-5.5zm7.4-11.1h4.2l-2.1-12.9-2.1 12.9zm16.5 11.1V81.1h-5.3v-4.2h16.1v4.2h-5.1v27.2h-5.7zm13.5 0V76.8h5.7v31.5h-5.7zm15.4 0l-6.4-31.5h5.1l4.1 21.9 3.9-21.9h5.2l-6.4 31.5H134zm15.2 0V76.8h13.2v4H155v9h5.9v4H155v10.4h7.5v4h-13.3zm24.5.4c-5.5 0-8.5-3.2-8.7-9.6l5-1c.1 4.2 1.3 6.2 3.6 6.2.9 0 1.5-.3 1.9-.8.4-.5.6-1.2.6-2.1 0-.9-.2-1.7-.5-2.4s-.7-1.3-1.1-1.8c-.4-.5-1-1-1.8-1.7l-4.1-3.6c-1.2-1.1-2.1-2.2-2.7-3.3-.6-1.1-.9-2.6-.9-4.3 0-2.4.7-4.3 2.2-5.7 1.4-1.4 3.4-2 5.9-2.1 1.2 0 2.2.1 3.1.4.9.3 1.6.7 2.2 1.2.6.5 1.1 1.1 1.4 1.9.4.7.7 1.5.9 2.3.2.8.3 1.7.4 2.7l-4.9 1c0-.6-.1-1.2-.1-1.7-.1-.5-.2-.9-.3-1.4-.1-.5-.3-.9-.5-1.2-.2-.3-.5-.5-.9-.7s-.8-.2-1.3-.2c-.8.1-1.5.3-1.9.8-.5.5-.7 1.2-.7 2.1 0 1 .2 1.8.6 2.5s1 1.4 1.9 2.1l4.1 3.6c.7.6 1.3 1.2 1.8 1.8.5.6 1 1.2 1.5 2 .5.7.8 1.6 1.1 2.5.2.9.4 1.8.4 2.8 0 2.3-.7 4.2-2.2 5.6s-3.6 2.1-6 2.1zM59 52.8v1.1h-3.9v2h3.5V57h-3.5v2h4v1h-5.3v-7.2H59zm3.9 1.1c-.7 0-1.2.3-1.2.8 0 1.6 3.9.7 3.9 3.3 0 1.3-1.1 2.1-2.7 2.1-1.1 0-2.2-.5-2.9-1.1l.5-1c.7.7 1.7 1 2.4 1 .8 0 1.3-.3 1.3-.9 0-1.6-3.9-.7-3.9-3.3 0-1.2 1.1-2 2.6-2 .9 0 1.8.3 2.5.7l-.4 1.1c-.8-.5-1.6-.7-2.1-.7zm9-1.1v1.1h-2.3V60h-1.2v-6.1h-2.3v-1.1h5.8zm5 5.6h-3.6l-.7 1.6h-1.3l3.2-7.2h1.2l3.1 7.2h-1.3l-.6-1.6zm-.5-1.1L75 54.1l-1.4 3.2h2.8zm8.9-2.7c0 .8-.5 1.4-1.3 1.6 1 .2 1.5.9 1.5 1.8 0 1.2-1 2-2.6 2h-3.2v-7.2h3.1c1.6 0 2.5.7 2.5 1.8zm-1.2.2c0-.6-.5-.9-1.2-.9H81v1.9h1.8c.8 0 1.3-.3 1.3-1zm.3 3.1c0-.6-.6-1-1.5-1H81V59h1.8c1-.1 1.6-.4 1.6-1.1zm3.9-5.1v6.1h3.1V60h-4.3v-7.2h1.2zm5.4 0V60h-1.2v-7.2h1.2zm4.2 1.1c-.7 0-1.2.3-1.2.8 0 1.6 3.9.7 3.9 3.3 0 1.3-1.1 2.1-2.7 2.1-1.1 0-2.2-.5-2.9-1.1l.5-1c.7.7 1.7 1 2.4 1 .8 0 1.3-.3 1.3-.9 0-1.6-3.9-.7-3.9-3.3 0-1.2 1.1-2 2.6-2 .9 0 1.8.3 2.5.7l-.5 1.1c-.7-.5-1.5-.7-2-.7zm5.3-1.1V56h3.8v-3.1h1.2V60H107v-3h-3.8v3H102v-7.2h1.2zm12.1 0v1.1h-3.9v2h3.5V57h-3.5v2h4v1h-5.3v-7.2h5.2zm8.2 3.6c0 2.1-1.6 3.6-3.7 3.6h-2.9v-7.2h2.9c2.2 0 3.7 1.5 3.7 3.6zm-1.2 0c0-1.5-1.1-2.5-2.5-2.5h-1.7v5h1.8c1.3 0 2.4-1 2.4-2.5zm8.5-3.6V60h-1.2v-6.1H128v-1.1h2.8zm5.2 6.3c1.4 0 2-1 2-2.6-.4.7-1 1-2 1-1.4 0-2.3-.9-2.3-2.3 0-1.5 1-2.4 2.5-2.4 1.8 0 2.9 1.3 2.9 3.5 0 2.3-1.2 3.8-3.1 3.8-.7 0-1.6-.2-2.1-.5l.5-.9c.4.2 1 .4 1.6.4zm-1.2-3.9c0 .8.5 1.3 1.4 1.3 1 0 1.5-.6 1.5-1.4 0-.6-.4-1.3-1.5-1.3-.8 0-1.4.5-1.4 1.4zm7.5 3.9c1.4 0 2-1 2-2.6-.4.7-1 1-2 1-1.4 0-2.3-.9-2.3-2.3 0-1.5 1-2.4 2.5-2.4 1.8 0 2.9 1.3 2.9 3.5 0 2.3-1.2 3.8-3.1 3.8-.7 0-1.6-.2-2.1-.5l.5-.9c.5.2 1 .4 1.6.4zm-1.1-3.9c0 .8.5 1.3 1.4 1.3 1 0 1.5-.6 1.5-1.4 0-.6-.4-1.3-1.5-1.3-.9 0-1.4.5-1.4 1.4zm10.7-2.4v.9l-3 6.3h-1.3l3-6.1h-3v1h-1.1v-2.1h5.4zM46.6 46.9l.5 1.9 3.3-.9-.5-1.9-3.3.9zm82.3 122.8l1.1 1.7c1-.6 1.9-1.3 2.8-2l-1.2-1.6c-.8.6-1.8 1.2-2.7 1.9zm-11.8 6.8l.9 1.8c1-.5 2.1-1 3.1-1.6l-.9-1.8c-1.1.6-2.1 1.1-3.1 1.6zm6-3.2l1 1.7 3-1.8-1.1-1.7c-.9.6-1.9 1.2-2.9 1.8zm47.5-52.8l-1.8-.8c-.5 1-.9 2.1-1.4 3.1l1.8.9c.5-1.1 1-2.2 1.4-3.2zM58.7 152.8l1.5-1.3c-.7-.8-1.4-1.7-2.1-2.5l-.1-.1-1.6 1.3.1.1c.8.8 1.5 1.6 2.2 2.5zm-18.5-29.2l1.8-.9c-.5-1-1-2.1-1.4-3.1l-1.8.8c.4 1.1.9 2.1 1.4 3.2zm70.7 55.7l.8 1.9c1.1-.4 2.1-.9 3.2-1.4l-.8-1.8c-1.1.4-2.2.8-3.2 1.3zm-16.4.4c1 .5 2.1.9 3.2 1.4l.8-1.9c-1-.4-2.1-.9-3.1-1.3l-.9 1.8zm-6.2-3c1 .5 2.1 1.1 3.1 1.6l.9-1.8c-1-.5-2-1-3-1.6l-1 1.8zm16.4 4.9c-1-.3-2.1-.7-3.1-1.1l-.7 1.9 3.3 1.2.5-1.3.5 1.4h.1c1.1-.4 2.1-.7 3.2-1.1l-.7-1.9c-1.1.2-2.1.5-3.1.9zm63-54.9l-1.8-.9c-.5 1-1 2-1.6 3l1.8.9c.6-.9 1.1-1.9 1.6-3zm-14.9 23.5l-1.5-1.3-.1.1c-.7.9-1.4 1.7-2.1 2.6l1.5 1.3c.8-.9 1.5-1.8 2.2-2.7zm-127.9-97l-2 .1c.1 1.1.2 2.3.3 3.4l2-.2c-.1-1-.2-2.2-.3-3.3zm139.6 79.7l-1.8-1c-.6 1-1.1 2-1.7 3l1.7 1 1.8-3zm-94.8 28.3c-.8-.8-1.7-1.5-2.5-2.3l-1.4 1.4c.8.8 1.7 1.6 2.5 2.4l1.4-1.5zm-4.9-4.7c-.8-.8-1.6-1.6-2.3-2.5l-1.5 1.4c.8.9 1.6 1.7 2.4 2.5l1.4-1.4zm74.8 4.8l1.3 1.5c.9-.8 1.7-1.6 2.5-2.4L142 159c-.7.7-1.5 1.5-2.4 2.3zm-96.4-31.5l1.8-.9c-.5-1-1-2-1.6-3l-1.8.9c.6.9 1.1 2 1.6 3zm113.9 14.8l-1.6-1.2c-.7.9-1.3 1.9-2 2.8l1.6 1.2c.6-.9 1.3-1.8 2-2.8zM101 25.8l-1.1-1.7c-.9.6-1.9 1.2-2.9 1.8l1.1 1.7c1-.6 2-1.2 2.9-1.8zm59.9 113l-1.7-1.1c-.6 1-1.2 1.9-1.9 2.9l1.7 1.1c.7-.9 1.3-1.9 1.9-2.9zm-12.5 16.6l-1.5-1.4c-.8.8-1.6 1.7-2.3 2.5l1.4 1.4c.8-.8 1.6-1.6 2.4-2.5zm-66.2 17.8l3 1.8 1-1.7c-1-.6-2-1.2-2.9-1.8l-1.1 1.7zm52.2-7.5l1.2 1.6c.9-.7 1.8-1.4 2.7-2.2l-1.3-1.5c-.8.6-1.7 1.4-2.6 2.1zM91.1 29.4l1 1.8c1-.6 2-1.1 3-1.7l-1-1.7c-1 .5-2 1-3 1.6zm17.4-3.5c1 .6 1.9 1.2 2.9 1.9l1.1-1.7c-1-.6-1.9-1.2-2.9-1.8l-1.1 1.6zM40 48.6l.4 2c1.1-.3 2.3-.5 3.4-.8l-.5-2c-1.1.2-2.2.5-3.3.8zm74.4-19.1c1 .6 2 1.2 3 1.7l1-1.8c-1-.6-2-1.1-3-1.7l-1 1.8zm6 3.4c1 .5 2 1.1 3.1 1.6l.9-1.8c-1-.5-2-1-3-1.6l-1 1.8zm6.2 3.1c1 .5 2.1 1 3.1 1.5l.8-1.8c-1-.5-2.1-1-3.1-1.4l-.8 1.7zm-47.7-.4l.8 1.8c1.1-.5 2.1-1 3.1-1.5l-.8-1.8c-1 .5-2 1-3.1 1.5zM59.8 43l.6 1.9c1.1-.4 2.2-.7 3.3-1.1l-.7-1.9c-1.1.4-2.1.8-3.2 1.1zm-6.6 2.1l.6 1.9c1.1-.3 2.2-.7 3.3-1l-.6-1.9c-1.1.3-2.2.7-3.3 1zm13-4.3l.7 1.9c1.1-.4 2.2-.8 3.2-1.2l-.7-1.9c-1 .4-2.1.8-3.2 1.2zm6.4-2.5l.8 1.9c1.1-.4 2.1-.9 3.2-1.3l-.8-1.9c-1.1.4-2.1.9-3.2 1.3zm60.3.5c1.1.5 2.1.9 3.2 1.3l.8-1.9c-1.1-.4-2.1-.9-3.2-1.3l-.8 1.9zm-47.8-6.2l.9 1.8c1-.5 2.1-1.1 3.1-1.6l-1-1.8c-1 .6-2 1.1-3 1.6zm94.1 20c1.1.2 2.3.4 3.4.6l.3-2c-1.1-.2-2.3-.4-3.4-.6l-.3 2zM26.5 51.2l.3 2c1.1-.2 2.3-.4 3.4-.6l-.4-2c-1 .2-2.2.4-3.3.6zm157.7 5.5l2 .2c.1-1.2.2-2.3.3-3.4l-2-.1c-.1 1-.2 2.1-.3 3.3zm-.7 6.8l2 .2c.1-1.1.3-2.3.4-3.4l-2-.2c-.1 1.1-.3 2.3-.4 3.4zm-44.2-22c1.1.4 2.2.8 3.2 1.2l.7-1.9c-1.1-.4-2.1-.8-3.2-1.2l-.7 1.9zM71 165c.9.7 1.8 1.5 2.7 2.2l1.2-1.6c-.9-.7-1.8-1.4-2.6-2.1L71 165zm5.5 4.3c.9.7 1.9 1.4 2.8 2l1.1-1.7c-.9-.6-1.9-1.3-2.8-2l-1.1 1.7zm-53-109.1c.1 1.1.2 2.3.4 3.4l2-.2c-.1-1.1-.3-2.3-.4-3.4l-2 .2zM152.4 46c1.1.3 2.2.7 3.3 1l.6-1.9c-1.1-.3-2.2-.7-3.3-1l-.6 1.9zm6.6 2l3.3.9.5-1.9-3.3-.9-.5 1.9zm13.4 3.3c1.1.2 2.3.5 3.4.7l.4-2c-1.1-.2-2.3-.5-3.4-.7l-.4 2zm-26.6-7.4c1.1.4 2.2.8 3.3 1.1l.6-1.9c-1.1-.4-2.2-.7-3.2-1.1l-.7 1.9zM33.3 50l.4 2c1.1-.2 2.3-.5 3.4-.7l-.4-2c-1.2.2-2.3.5-3.4.7zm132.4-.3c1.1.3 2.2.5 3.4.8l.4-2c-1.1-.3-2.2-.5-3.3-.8l-.5 2zm-61-26.4l.9.6 1.1-1.7c-.5-.3-1-.7-1.4-1l-.6-.4-.6.4c-.4.3-.9.6-1.3.9l1.1 1.7c.3-.1.5-.3.8-.5zM46.6 135.8l1.7-1c-.6-1-1.1-2-1.7-3l-1.8 1c.7 1 1.2 2 1.8 3zm9.3 10.3c-.7-.9-1.4-1.8-2-2.8l-1.6 1.2c.7.9 1.4 1.9 2 2.8l1.6-1.2zm-3.9-5.5c-.6-.9-1.3-1.9-1.9-2.9l-1.7 1.1c.6 1 1.3 2 1.9 2.9l1.7-1.1z" fill="#2B292A"/><path fill="#2B292A" d="M20.6 117.6c6.1 16.2 14 30.3 23.5 42.3 14.6 18.2 33.1 31.2 55 38.6 1.7.6 3.3 1.1 5 1.6l.5.1.5-.1c.8-.2 1.7-.5 2.5-.8.8-.3 1.7-.5 2.5-.8 21.9-7.4 40.4-20.4 55-38.6 9.6-11.9 17.4-26.1 23.5-42.3h17.6l-7.1-24.9 7-26.4H201c1.9-15.8 1.7-26.5 1.7-26.7v-1.5l-1.5-.2c-20.1-2.1-38.8-6.4-55.5-13-17-6.6-28.4-14.1-34.9-19.2-.4-.3-.9-.7-1.3-1l-3.6-3-1.2-1.1-1.2 1.1c-.8.7-1.7 1.5-2.6 2.2-.8.7-1.5 1.3-2.3 1.8-6.5 5.1-17.8 12.5-34.9 19.2-16.7 6.6-35.4 10.9-55.4 13l-1.5.1v1.5c0 .2-.2 10.9 1.7 26.7H.8l5.8 27-5.8 24.3h19.8zM10.2 41.1c19.8-2.2 38.3-6.5 54.9-13 17.4-6.8 29-14.4 35.7-19.7.8-.6 1.6-1.2 2.4-1.9.5-.4 1-.9 1.5-1.3.8.7 1.7 1.4 2.5 2.1.4.4.9.7 1.4 1.1 6.7 5.2 18.3 12.9 35.7 19.7 16.6 6.5 35.1 10.9 54.9 13 0 3.5-.2 12.7-1.7 25.1h-5.6c1-7.6 1.4-14 1.6-18.6l.1-1.6-1.6-.2c-17.8-2.4-34.5-6.6-49.7-12.6-14-5.5-26.7-12.4-36.6-20l-1.1-.8-1.1.8c-9.9 7.6-22.6 14.6-36.6 20C51.7 39.1 35 43.4 17.2 45.8l-1.6.2.1 1.6c.2 4.6.6 11 1.6 18.6h-5.6c-1.4-12.3-1.5-21.6-1.5-25.1zm10.7 25.1c-.9-6.8-1.3-12.7-1.5-17.2 17.5-2.5 33.9-6.7 49-12.5 13.8-5.4 26.4-12.2 36.4-19.7 10 7.5 22.5 14.3 36.4 19.7 15 5.9 31.5 10.1 49 12.5-.2 4.4-.7 10.3-1.5 17.2H20.9zm-10.3 3.5h191.2l-3.4 12.6-2.8 10.4.3 1.1 5.8 20.4H5.1l5-20.8-5-23.6h5.5zm151.9 88c-14.2 17.7-32.1 30.3-53.4 37.5-.8.3-1.6.5-2.4.8-.7.2-1.3.4-2 .6-1.5-.4-3-.9-4.4-1.4C79 188 61 175.4 46.9 157.7c-9.1-11.4-16.7-24.8-22.6-40.2h5.9c5.6 14 12.7 26.4 21.1 36.9 13.5 16.7 30.5 28.7 50.7 35.5.7.2 1.4.5 2.1.7l.5.2.5-.2c.7-.2 1.4-.5 2.1-.7 20.2-6.8 37.2-18.7 50.7-35.5 8.4-10.5 15.5-22.8 21.1-36.9h5.9c-5.7 15.4-13.3 28.8-22.4 40.2zm12.9-40.1c-5.4 13.2-12.1 24.8-20 34.7-13 16.2-29.6 27.8-49.1 34.4-.5.2-1 .3-1.5.5-.5-.2-1-.3-1.5-.5-19.7-6.7-36.2-18.2-49.3-34.4-7.9-9.9-14.7-21.5-20-34.7h141.4z"/><path fill="#2B292A" d="M15.5 95.3h.2c.5 0 1-.2 1.4-.5.5-.4.7-1 .7-1.6 0-1-.7-1.9-1.6-2.1-.2 0-.3-.1-.5-.1-.4 0-.8.1-1.2.4-.6.4-1 1-1 1.8.1 1.1.9 2 2 2.1zm170.9-.2c.3.2.7.3 1 .3 1.2 0 2.2-1 2.2-2.2s-1-2.2-2.2-2.2c-1.2 0-2.1 1-2.1 2.2 0 .8.5 1.5 1.1 1.9zM69.7 133.2c.6 3.5 1.9 14.9 10.7 15.2 0 0 8 .3 9.7 0 1.7-.3 7.8-1.7 10.1-11 0 0 .5-2.1 1.6-3.8 1.4-2.1 4.6-2.1 6 0 1.1 1.7 1.6 3.8 1.6 3.8 2.3 9.3 8.4 10.7 10.1 11 1.7.3 9.7 0 9.7 0 8.8-.2 10.1-11.7 10.7-15.2.6-3.5 3.2-2.7 3.2-2.7v-6.3c-21.6-3.6-32 1-33.6 2-.4.3-.9.5-1.5.6-2.1.6-4.3.6-6.3 0-.6-.2-1.1-.4-1.5-.6-1.6-1.1-12-5.7-33.6-2v6.3c-.1 0 2.5-.8 3.1 2.7zm44.4-5.6c3.8-1.2 7.9-1.7 12.6-1.7h1c3.9.1 6.6 1.1 8 3.2 1.1 1.6 1.2 3.5 1 4.8-.1 1.5-.5 2.6-.5 2.6-.4 1.8-.9 3.3-1.5 4.6-.9 1.9-2.4 4.1-5.6 4.2 0 0-3.5.1-6.3.1-2.2 0-2.7-.1-2.7-.1-3.5-.7-5.9-3.2-7.9-8.6-.5-1.4-.8-3.2-.9-5.2-.1-1.8 1.1-3.4 2.8-3.9zM73.8 129c1.4-2 4.1-3.1 8-3.2h1c4.7 0 8.8.6 12.6 1.7 1.7.5 2.9 2.1 2.8 3.9 0 2.1-.3 3.8-.9 5.2-2.1 5.4-4.4 8-7.9 8.6 0 0-.5.1-2.7.1-2.8 0-6.3-.1-6.3-.1-3.2-.1-4.6-2.3-5.6-4.2-.6-1.3-1.1-2.8-1.5-4.6 0 0-.4-1.1-.5-2.6-.1-1.3 0-3.2 1-4.8zm41.3 22.8c-3.8-3-7.6-2.2-9.9-1.2-2.3-1-6.1-1.8-9.9 1.2-6 4.7-12.4 2.2-12.5-.6 0 0-4.3 16.6 12.5 15.1 7.1-.6 8.5-2.3 9.9-3.5 1.4 1.2 2.8 2.9 9.9 3.5 16.8 1.5 12.5-15.1 12.5-15.1-.2 2.8-6.6 5.3-12.5.6zm-8.6-113.3l-2.4-4.9-2.4 4.9-5.4.7 3.9 3.9-.9 5.3 4.8-2.5 4.9 2.5-1-5.3 3.9-3.9z"/></svg>