<svg xmlns="http://www.w3.org/2000/svg" viewBox="0 0 200.6 165"><path d="M26.1 91.1v-25h5.7c1.3 0 2.4.1 3.4.3.9.2 1.8.6 2.5 1.1.7.5 1.2 1.2 1.6 2.1s.5 1.9.5 3.2c0 1.6-.2 2.8-.7 3.8s-1.2 1.7-2.3 2.2l3.5 12.3h-4.6l-3-11.4h-2v11.4h-4.6zm4.5-14.3h1.1c1.3 0 2.3-.3 2.9-.9.6-.6.9-1.6.9-2.9 0-1.3-.2-2.3-.7-2.9-.5-.6-1.4-.9-2.7-.9h-1.4v7.6zm12.6 14.3v-25h10.4v3.2h-5.9v7.2h4.7v3.2h-4.7V88h6v3.1H43.2zm15.6 0V69.5h-4.2v-3.4h12.8v3.4h-4.1v21.6h-4.5zm10.5 0v-25H75c1.3 0 2.4.1 3.4.3.9.2 1.8.6 2.5 1.1.7.5 1.2 1.2 1.6 2.1s.5 1.9.5 3.2c0 1.6-.2 2.8-.7 3.8s-1.2 1.7-2.3 2.2l3.5 12.3h-4.6l-3-11.4h-2v11.4h-4.6zm4.6-14.3H75c1.3 0 2.3-.3 2.9-.9.6-.6.9-1.6.9-2.9 0-1.3-.2-2.3-.7-2.9-.5-.6-1.4-.9-2.7-.9H74v7.6zm19.3 14.6c-2.6 0-4.4-.7-5.5-2.1-1.1-1.4-1.7-3.4-1.7-6.1V74c0-1.3.1-2.5.4-3.4s.7-1.8 1.2-2.5 1.3-1.2 2.2-1.6 2.1-.5 3.4-.5c2.6 0 4.4.7 5.5 2.1 1.1 1.4 1.7 3.4 1.7 6.1v9.2c0 1.3-.1 2.5-.4 3.4s-.7 1.8-1.2 2.6c-.6.7-1.3 1.3-2.2 1.6-.9.2-2.1.4-3.4.4zm-1.1-3.5c.3.1.7.2 1.1.2.4 0 .8-.1 1.1-.2.3-.1.6-.3.7-.5.2-.2.3-.5.4-.8.1-.3.2-.7.2-1s.1-.7.1-1.2V72.9c0-.6 0-1.1-.1-1.5-.1-.4-.2-.8-.4-1.1s-.4-.6-.8-.8c-.4-.2-.8-.3-1.3-.3s-1 .1-1.3.3c-.4.2-.6.4-.8.8-.2.4-.3.7-.3 1.1-.1.4-.1.9-.1 1.5v11.3c0 .5 0 .9.1 1.2s.1.7.2 1 .2.6.4.8c.2.4.5.5.8.7zm19.2 3.2v-25h4.5V88h6v3.1h-10.5zm19.4.3c-2.6 0-4.4-.7-5.5-2.1-1.1-1.4-1.7-3.4-1.7-6.1V74c0-1.3.1-2.5.4-3.4s.7-1.8 1.2-2.5 1.3-1.2 2.2-1.6 2.1-.5 3.4-.5c2.6 0 4.4.7 5.5 2.1 1.1 1.4 1.7 3.4 1.7 6.1v9.2c0 1.3-.1 2.5-.4 3.4s-.7 1.8-1.2 2.6c-.6.7-1.3 1.3-2.2 1.6-.9.2-2.1.4-3.4.4zm-1.1-3.5c.3.1.7.2 1.1.2.4 0 .8-.1 1.1-.2.3-.1.6-.3.7-.5.2-.2.3-.5.4-.8.1-.3.2-.7.2-1s.1-.7.1-1.2V72.9c0-.6 0-1.1-.1-1.5-.1-.4-.2-.8-.4-1.1s-.4-.6-.8-.8c-.4-.2-.8-.3-1.3-.3s-1 .1-1.3.3c-.4.2-.6.4-.8.8-.2.4-.3.7-.3 1.1-.1.4-.1.9-.1 1.5v11.3c0 .5 0 .9.1 1.2s.1.7.2 1 .2.6.4.8c.2.4.5.5.8.7zm17.9 3.6c-2.4 0-4.1-.7-5.1-2.2s-1.6-3.6-1.6-6.4v-8.1c0-1.4.1-2.7.3-3.7.2-1 .6-2 1.1-2.7.5-.8 1.3-1.4 2.2-1.8.9-.4 2.1-.6 3.4-.6 2.5 0 4.2.6 5.3 1.8 1.1 1.2 1.6 3 1.6 5.5v1.2h-4.4v-2.7c0-.4-.1-.7-.2-1.1-.1-.4-.2-.6-.4-.8-.2-.2-.4-.3-.7-.5-.3-.1-.7-.2-1.1-.2-.3 0-.6 0-.9.1s-.5.2-.7.3-.3.3-.5.5c-.1.2-.2.5-.3.7-.1.2-.1.5-.2.8s-.1.6-.1.9v11.1c0 1.5.2 2.6.6 3.3.4.7 1.1 1 2.1 1 .5 0 1-.1 1.4-.3.4-.2.7-.5.9-.9s.4-.9.4-1.4c.1-.5.1-1.2.1-1.9v-2H148v-2.9h6.8v12.7h-3l-.3-2.5c-.5 1.8-1.9 2.8-4 2.8zm17.8-.1c-2.6 0-4.4-.7-5.5-2.1-1.1-1.4-1.7-3.4-1.7-6.1V74c0-1.3.1-2.5.4-3.4s.7-1.8 1.2-2.5 1.3-1.2 2.2-1.6 2.1-.5 3.4-.5c2.6 0 4.4.7 5.5 2.1 1.1 1.4 1.7 3.4 1.7 6.1v9.2c0 1.3-.1 2.5-.4 3.4s-.7 1.8-1.2 2.6c-.6.7-1.3 1.3-2.2 1.6-1 .2-2.1.4-3.4.4zm-1.2-3.5c.3.1.7.2 1.1.2.4 0 .8-.1 1.1-.2.3-.1.6-.3.7-.5.2-.2.3-.5.4-.8.1-.3.2-.7.2-1s.1-.7.1-1.2V72.9c0-.6 0-1.1-.1-1.5-.1-.4-.2-.8-.4-1.1s-.4-.6-.8-.8c-.4-.2-.8-.3-1.3-.3s-1 .1-1.3.3c-.4.2-.6.4-.8.8-.2.4-.3.7-.3 1.1-.1.4-.1.9-.1 1.5v11.3c0 .5 0 .9.1 1.2s.1.7.2 1 .2.6.4.8c.3.4.5.5.8.7zm-99.8 26.5h1.2v3.1c-.9.6-2.1 1.1-3.3 1.1-2.5 0-4.4-1.9-4.4-4.3s2-4.2 4.5-4.2c1.2 0 2.4.5 3.2 1.2l-.8 1c-.6-.6-1.6-1-2.4-1-1.7 0-3.1 1.3-3.1 3s1.4 3 3.1 3c.6 0 1.3-.2 1.9-.6v-2.3zm6.8 2.9c1.4 0 2.2-.8 2.2-2.3v-4.9h1.4v4.9c0 2.2-1.4 3.5-3.7 3.5-2.3 0-3.7-1.3-3.7-3.5v-4.9h1.4v4.9c.1 1.5 1 2.3 2.4 2.3zm10.9-.6h-4.2l-.8 1.9h-1.5l3.7-8.4h1.5l3.7 8.4h-1.5l-.9-1.9zm-.6-1.3l-1.6-3.7-1.6 3.7h3.2zm9.3 3.2l-1.5-2.5h-2.4v2.5h-1.4v-8.4h3.4c2.2 0 3.4 1 3.4 2.9 0 1.3-.6 2.3-1.7 2.7l1.9 2.8h-1.7zm-1.9-3.9c1.3 0 2-.6 2-1.7s-.7-1.6-2-1.6h-2v3.3h2zm10.7 2h-4.2l-.8 1.9H93l3.7-8.4h1.5l3.7 8.4h-1.5l-.9-1.9zm-.5-1.3l-1.6-3.7-1.6 3.7H99zm5.3-5.3l4.5 6v-6h1.4v8.4h-1.4l-4.5-6v6H103v-8.4h1.3zm13.9 0v1.3h-2.7v7.1h-1.4v-7.1h-2.7v-1.3h6.8zm7.2 0v1.3h-4.6v2.3h4.1v1.3h-4.1v2.3h4.7v1.3h-6.2v-8.4h6.1zm7.9 0v1.3h-4.6v2.3h4.1v1.3h-4.1v2.3h4.7v1.3h-6.2v-8.4h6.1zm9.7 4.3c0 2.4-1.8 4.2-4.4 4.2h-3.4v-8.4h3.5c2.5-.1 4.3 1.7 4.3 4.2zm-1.4 0c0-1.7-1.3-2.9-2.9-2.9h-2v5.9h2.1c1.5-.1 2.8-1.3 2.8-3z" fill="#2B292A"/><path fill="#2B292A" d="M32.3 117.1c1.2 2.6 2.5 5.1 4 7.6 6.4 10.5 15.2 19.3 26.3 26.1 18.8 11.6 37.4 13.6 38.2 13.6h.4c.7-.1 18.4-2.2 36.2-13.8 10.5-6.8 18.9-15.4 25-25.7 1.5-2.5 2.8-5.1 4-7.8h34.2l-2.3-18.9 2.3-21.4H189V56h-15.2V16.3c0-9-7.3-16.3-16.3-16.3H40.7c-9 0-16.3 7.3-16.3 16.3V56H9.2v20.7H.3l2.3 21.4L.3 117h32zM9.2 78.8V102h17.9c1.1 4.6 2.5 9 4.3 13.2H2.6l2-16.8v-.1l-2-19.5h6.6zm2-2V58.1h175.6V100H11.2V76.8zm16.6-60.5c0-7.1 5.8-12.9 12.9-12.9h116.6c7.1 0 12.9 5.8 12.9 12.9V56h-5.6V14.9c0-3.3-2.7-6-6-6H39.4c-3.3 0-6 2.7-6 6V56h-5.6V16.3zM162.7 56H35.4V14.9c0-2.2 1.8-4 4-4h119.2c2.2 0 4 1.8 4 4V56zm33.5 42.2l2.1 16.9h-31.1c1.7-4.2 3.1-8.6 4.1-13.2h17.6V78.8h9.4l-2.1 19.4zm-33.6 18.9c-1 2.1-2 4.1-3.1 6-5.7 9.8-13.7 18.1-23.8 24.6-16.3 10.5-32.8 13-34.7 13.3-2-.2-19.4-2.6-36.6-13.2-10.6-6.6-19-14.9-25.1-25-1.1-1.8-2.1-3.8-3.1-5.7-.2-.3-.3-.7-.5-1-.2-.3-.3-.7-.5-1-1.9-4.2-3.4-8.5-4.5-13.2h5.8c1.2 4.6 2.9 9 4.9 13.2.2.3.3.7.5 1 .2.3.4.7.5 1 5.6 10.4 13.7 19 24.5 25.8 14.7 9.2 29.7 12 33.9 12.6h.4c4-.7 18.2-3.6 32-12.6 10.3-6.8 18.1-15.4 23.4-25.7.2-.3.3-.7.5-1 .2-.3.3-.7.5-1 1.9-4.1 3.5-8.5 4.6-13.2h5.7c-1.1 4.6-2.5 9-4.3 13.2-.1.3-.3.7-.4 1-.3.2-.5.6-.6.9zm-7.7-1.3c-.2.5-.5.9-.7 1.3-5.1 9.6-12.5 17.7-22.2 24.1-13.3 8.7-26.9 11.6-31 12.3-4.4-.7-18.9-3.4-33-12.3-10.1-6.3-17.9-14.4-23.3-24.1-.2-.3-.4-.7-.5-1-.2-.3-.4-.7-.5-1-2.1-4.1-3.8-8.5-5.1-13.2h121.3c-1.1 4.1-2.4 8-4.1 11.7-.3.8-.6 1.5-.9 2.2z"/><path fill="#2B292A" d="M175.1 60.8h2.6v.9h-2.6zm8.2 2h.9v2.6h-.9zm0 10.4h.9v2.6h-.9zm0-5.2h.9v2.6h-.9zm-3.1-7.2h2.6v.9h-2.6zm-160.1 0h2.6v.9h-2.6zm-6.2 7.6h.9V71h-.9zm0 5.1h.9v2.6h-.9zm1-12.7h2.6v.9h-2.6zm-1 2.4h.9v2.6h-.9zm4.9 33.1h2.6v.9h-2.6zm-4-17.5v-.1h-.9v2.6h.9zm-.9 5.1h.9v2.6h-.9zm0 5.1h.9v2.6h-.9zm2.4 7.3h-1.5v-2.1h-.9v3h2.4zm167-7.6h.9v2.6h-.9zm.9-9.9v-.5h-.9v2.6h.9zm-10.4 17.5h2.6v.9h-2.6zm9.5-12.8h.9v2.6h-.9zm-4.4 12.8h2.6v.9h-2.6zm4.4-2.5h.9v2.6h-.9zm-18.6-33h2.6v.9h-2.6zm-134.3 0H33v.9h-2.6zm1.3 36.4v-.9h-2.5v.9h.4zm131.8-.9h2.6v.9h-2.6zm-136.9.9v-.9H24v.9h2.1zM172 61.6h.5v-.8h-2.6v.8h.4zm-144.2 0h.1v-.8h-2.6v.8h.8zm142.7 35.6h.7v-.9h-2.6v.9h.2zM87.3 60.8h2.6v.9h-2.6zm5.1 0H95v.9h-2.6zm-1.3 35.5h2.6v.9h-2.6zm-5.1 0h2.6v.9H86zm-3.9-35.5h2.6v.9h-2.6zm-1.3 35.5h2.6v.9h-2.6zm32.3-35.5h2.6v.9h-2.6zM96.3 96.3h2.6v.9h-2.6zm10.3 0h2.6v.9h-2.6zm5.2 0h2.6v.9h-2.6zm-3.9-35.5h2.6v.9h-2.6zm9.1 35.5h2.6v.9H117zM97.6 60.8h2.6v.9h-2.6zm3.9 35.5h2.6v.9h-2.6zm1.3-35.5h2.6v.9h-2.6zM60.2 96.3h2.6v.9h-2.6zm-5.2 0h2.6v.9H55zm-5.2 0h2.6v.9h-2.6zm1.3-35.5h2.6v.9h-2.6zm25.8 0h2.6v.9h-2.6zm-31 0h2.6v.9h-2.6zm-5.1 0h2.6v.9h-2.6zm-5.2 0h2.6v.9h-2.6zm34.9 35.5h2.6v.9h-2.6zm1.3-35.5h2.6v.9h-2.6zm3.8 35.5h2.6v.9h-2.6zm-9-35.5h2.6v.9h-2.6zm-5.2 0H64v.9h-2.6zm3.9 35.5h2.6v.9h-2.6zm-9-35.5h2.6v.9h-2.6zM148 96.3h2.6v.9H148zm1.2-35.5h2.6v.9h-2.6zm5.2 0h2.6v.9h-2.6zm-36.2 0h2.6v.9h-2.6zm24.6 35.5h2.6v.9h-2.6zm16.8-35.5h2.6v.9h-2.6zm-15.5 0h2.6v.9h-2.6zm-22 35.5h2.6v.9h-2.6zm6.5-35.5h2.6v.9h-2.6zm-1.3 35.5h2.6v.9h-2.6zm-3.9-35.5h2.6v.9h-2.6zm15.5 0h2.6v.9h-2.6zm-5.2 0h2.6v.9h-2.6zm-1.2 35.5h2.6v.9h-2.6zm5.1 0h2.6v.9h-2.6zm-98.1 0h2.6v.9h-2.6zm6.5.9h1.2v-.9h-2.5v.9h.3zm112.3-.9h2.6v.9h-2.6zm-3.4.9h.8v-.9h-2.6v.9h.8zm-118.6 0h.6v-.9h-2.6v.9h1zm66.6 36.1l-2.5-5-2.4 5-5.5.8 4 3.8-1 5.5 4.9-2.6 4.9 2.6-.9-5.5 4-3.8zm.5-108.2c-.5.3-1 .5-1.7.7-2.3.7-4.8.7-7.1 0-.6-.2-1.2-.4-1.7-.7-1.8-1.2-13.4-6.3-37.6-2.3v7.1s2.9-.9 3.5 3c.6 3.9 2.1 16.7 12 17 0 0 9 .4 10.9 0 1.9-.4 8.7-1.9 11.3-12.3 0 0 .5-2.3 1.8-4.2 1.6-2.4 5.1-2.4 6.7 0 1.3 1.9 1.8 4.2 1.8 4.2 2.6 10.4 9.4 12 11.3 12.3 1.9.4 10.9 0 10.9 0 9.9-.3 11.3-13.1 12-17 .6-3.9 3.5-3 3.5-3v-7.1c-24.1-4-35.7 1.1-37.6 2.3zM90 36.9c-2.3 6-5 8.9-8.9 9.6 0 0-.6.1-3 .1-3.1 0-7-.2-7.1-.2-3.5-.1-5.2-2.5-6.2-4.6-.7-1.4-1.3-3.1-1.7-5.2 0 0-.5-1.3-.6-2.9-.1-1.5 0-3.6 1.2-5.4 1.5-2.3 4.6-3.5 9-3.5h1.2c5.3 0 9.9.6 14.1 1.9 1.7.5 3 2.3 3 4.3-.1 2.3-.4 4.3-1 5.9zm42.9-8.7c1.2 1.8 1.3 3.9 1.2 5.4-.2 1.7-.6 2.9-.6 2.9-.5 2-1 3.7-1.7 5.2-1 2.1-2.7 4.5-6.2 4.6 0 0-4 .2-7.1.2-2.4 0-3-.1-3-.1-3.9-.7-6.6-3.6-8.9-9.6-.6-1.6-.9-3.5-1-5.8 0-2 1.3-3.8 3.2-4.4 4.3-1.3 8.9-1.9 14.1-1.9h1.2c4.2.1 7.3 1.3 8.8 3.5z"/></svg>