<svg xmlns="http://www.w3.org/2000/svg" viewBox="0 0 184.4 183.6"><path fill="#2B292A" d="M10.4 97.5l-1.8.9c.4.8.9 1.6 1.5 2.3.2.2.3.4.5.7l1.6-1.2c-.2-.2-.4-.5-.5-.7-.5-.7-.9-1.3-1.3-2zm3.8 5.7l-1.7 1c.6 1 1.1 2 1.5 3l1.8-.8c-.5-1.2-1-2.2-1.6-3.2zm2.9 6.4l-1.9.6c.4 1.1.7 2.1.9 3.2l2-.4c-.3-1.1-.6-2.3-1-3.4zm.3-36.6l-1.9-.6c-.3 1.1-.7 2.1-1.1 3.1l1.9.8c.4-1.1.8-2.2 1.1-3.3zm-6.5 12.3l-1.7-1c-.6 1.1-1.1 2.2-1.5 3.4l1.9.6c.3-1.1.7-2.1 1.3-3zm3.8-5.8l-1.8-1c-.5 1-1.1 1.9-1.8 2.8l1.7 1.1c.7-.9 1.3-1.9 1.9-2.9zM7.4 94.9l2-.4c-.2-.9-.3-1.8-.3-2.7v-.5l-2-.1v.5c0 1.1.1 2.2.3 3.2zm27.3 6.1c-1.1 0-2.1-.1-3-.4-.9-.3-1.6-.7-2.1-1.2s-1-1.1-1.4-1.9-.6-1.5-.7-2.4c-.1-.8-.2-1.8-.2-2.9v-9c0-1.1.1-2.1.2-3 .1-.9.4-1.7.7-2.4.3-.7.8-1.4 1.4-1.8.6-.5 1.3-.9 2.1-1.1.8-.3 1.8-.4 3-.4 1.3 0 2.4.2 3.3.5.9.3 1.6.8 2.2 1.5.5.7.9 1.4 1.2 2.3.2.9.4 1.9.4 3.1v2.2h-4.6v-2.2c0-1.3-.1-2.2-.2-2.6-.3-.9-.9-1.3-2-1.4h-.3c-.4 0-.7 0-1 .1-.3.1-.5.2-.7.4-.2.2-.3.4-.5.6-.1.2-.2.5-.3.9-.1.4-.1.7-.1 1v12.2c0 1.5.2 2.6.6 3.3.4.6 1.1 1 2 1 .3 0 .6 0 .9-.1.3-.1.5-.2.6-.3.2-.1.3-.3.4-.5l.3-.6c.1-.2.1-.5.1-.8 0-.3 0-.6.1-.9v-3.3h4.6V93c0 1-.1 1.8-.2 2.6s-.4 1.5-.7 2.2c-.3.7-.8 1.2-1.3 1.7s-1.2.8-2 1.1c-.8.2-1.7.4-2.8.4zm10.3-.4V74.7h5.9c1.4 0 2.5.1 3.5.3 1 .2 1.8.6 2.6 1.1s1.3 1.2 1.6 2.1c.4.9.5 2 .5 3.3 0 1.6-.2 3-.7 4-.5 1-1.3 1.8-2.4 2.3l3.6 12.8h-4.7l-3.1-11.8h-2.1v11.8H45zm4.7-14.8h1.1c1.4 0 2.4-.3 3-.9s.9-1.6.9-3-.3-2.4-.8-3c-.5-.6-1.4-.9-2.8-.9h-1.4v7.8zm13 14.8V74.7h10.9V78h-6.1v7.4h4.8v3.3h-4.8v8.6h6.2v3.3h-11zm12.3 0l5.3-25.9h4.9l5.3 25.9h-4.4l-1-6h-4.5l-1.1 6H75zm6.1-9.1h3.5l-1.7-10.6-1.8 10.6zm13.6 9.1V78.2h-4.3v-3.5h13.3v3.5h-4.2v22.4h-4.8zm11.1 0V74.7h4.7v25.9h-4.7zm12.7 0l-5.3-25.9h4.2l3.4 18 3.2-18h4.3l-5.3 25.9h-4.5zm12.5 0V74.7h10.9V78h-6.1v7.4h4.8v3.3h-4.8v8.6h6.2v3.3h-11zm20.2.4c-4.6 0-7-2.6-7.2-7.9l4.1-.9c.1 3.4 1.1 5.1 2.9 5.1.7 0 1.3-.2 1.6-.7.3-.4.5-1 .5-1.8 0-.7-.1-1.4-.4-2-.3-.6-.6-1.1-.9-1.5-.3-.4-.8-.9-1.5-1.4l-3.4-3c-1-.9-1.7-1.8-2.2-2.7-.5-.9-.7-2.1-.7-3.5 0-2 .6-3.6 1.8-4.7 1.2-1.1 2.8-1.7 4.9-1.7.9 0 1.8.1 2.5.4.7.2 1.3.6 1.8 1s.9.9 1.2 1.5.6 1.3.7 1.9.3 1.4.3 2.2l-4 .8c0-.5-.1-1-.1-1.4 0-.4-.1-.8-.2-1.2-.1-.4-.3-.7-.4-1s-.4-.4-.7-.6-.7-.2-1.1-.2c-.7 0-1.2.3-1.6.7-.4.4-.6 1-.6 1.7 0 .8.2 1.5.5 2.1.3.5.8 1.1 1.5 1.7l3.4 2.9c.6.5 1.1 1 1.5 1.5s.8 1 1.2 1.6c.4.6.7 1.3.9 2s.3 1.5.3 2.3c0 1.9-.6 3.4-1.8 4.6-1.3 1.6-2.9 2.2-4.8 2.2zm-96.5 30.2V109h5.2c1.3 0 2.5.1 3.4.4.9.3 1.6.7 2.2 1.3.5.6.9 1.3 1.2 2.1.2.8.3 1.9.3 3.1v8c0 1.3-.1 2.3-.3 3.2s-.6 1.6-1.1 2.3c-.5.6-1.2 1.1-2.1 1.4-.9.3-2 .4-3.3.4h-5.5zm4-2.9h1.2c.4 0 .8 0 1.1-.1.3-.1.6-.2.8-.3.2-.1.4-.3.5-.5l.3-.6c.1-.2.1-.5.2-.9 0-.4.1-.7.1-1v-10.6c0-.3-.1-.6-.1-1-.1-.3-.2-.6-.3-.8-.1-.2-.3-.3-.5-.5-.2-.1-.5-.3-.8-.3-.3-.1-.7-.1-1.2-.1h-1.1v16.7zm11.2 2.9V109h9.3v2.9h-5.3v6.4h4.2v2.9h-4.2v7.3h5.3v2.8h-9.3zm17.3.2c-3.9 0-6-2.3-6.2-6.8l3.5-.7c.1 2.9.9 4.4 2.5 4.4.6 0 1.1-.2 1.4-.6.3-.4.4-.9.4-1.5s-.1-1.2-.3-1.7c-.2-.5-.5-.9-.8-1.3s-.7-.7-1.3-1.2l-2.9-2.5c-.9-.8-1.5-1.5-1.9-2.3-.4-.8-.6-1.8-.6-3 0-1.7.5-3.1 1.5-4 1-1 2.4-1.4 4.2-1.5.8 0 1.5.1 2.2.3.6.2 1.1.5 1.5.8.4.4.7.8 1 1.3.3.5.5 1.1.6 1.6.1.6.2 1.2.3 1.9l-3.5.7c0-.4 0-.8-.1-1.2s-.1-.7-.2-1c-.1-.3-.2-.6-.4-.8-.2-.2-.4-.4-.6-.5-.3-.1-.6-.2-.9-.1-.6 0-1.1.2-1.4.6s-.5.8-.5 1.5.1 1.3.4 1.8c.3.5.7 1 1.3 1.5l2.9 2.5c.5.4.9.9 1.3 1.3s.7.9 1 1.4c.3.5.6 1.1.7 1.7s.3 1.3.3 2c0 1.6-.5 2.9-1.5 3.9-.9 1-2.2 1.5-3.9 1.5zm8.1-.2V109h4v22.2h-4zm13 .3c-2.1 0-3.6-.7-4.5-2s-1.4-3.2-1.4-5.7v-7.2c0-1.3.1-2.4.3-3.3.2-.9.5-1.7 1-2.4s1.1-1.2 2-1.6c.8-.3 1.9-.5 3.1-.5 2.2 0 3.8.5 4.7 1.6 1 1.1 1.4 2.7 1.4 4.9v1.1H111V114c0-.3-.1-.6-.2-.9-.1-.3-.2-.6-.4-.7s-.4-.3-.7-.4c-.3-.1-.6-.2-1-.2-.3 0-.6 0-.8.1l-.6.3c-.2.1-.3.3-.4.5l-.3.6c-.1.2-.1.4-.1.7 0 .3-.1.6-.1.8v9.9c0 1.3.2 2.3.5 2.9.3.6 1 .9 1.9.9.5 0 .9-.1 1.2-.3.3-.2.6-.5.8-.8s.3-.8.4-1.3.1-1.1.1-1.7v-1.8h-2.4V120h6.1v11.3h-2.6l-.3-2.3c-.7 1.6-2 2.5-3.8 2.5zm9.7-.3V109h2.8l5.4 12.6V109h3.4v22.2H127l-5.5-13.2v13.2H118zm-64.5-89v1.2h-4.3v2.2h3.9v1.2h-3.9V49h4.5v1.2h-5.8v-7.9h5.6zm4.3 1.2c-.8 0-1.3.3-1.3.8 0 1.7 4.3.8 4.3 3.7 0 1.4-1.2 2.3-3 2.3-1.2 0-2.4-.5-3.2-1.3l.6-1.2c.8.7 1.8 1.2 2.7 1.2.9 0 1.5-.4 1.5-1 0-1.8-4.3-.8-4.3-3.6 0-1.4 1.2-2.2 2.9-2.2 1 0 2 .3 2.8.8l-.6 1.2c-.9-.5-1.8-.7-2.4-.7zm10-1.2v1.2h-2.5v6.7H64v-6.7h-2.5v-1.2h6.3zm1.4 7.3c0 .4-.3.8-.7.8-.4 0-.7-.3-.7-.8 0-.4.3-.7.7-.7.4-.1.7.3.7.7zm44.6-7.3v7.9h-1.3v-6.7h-1.7v-1.2h3zm5.7 6.9c1.5 0 2.2-1.2 2.2-2.9-.4.7-1.2 1.1-2.2 1.1-1.6 0-2.5-1-2.5-2.5 0-1.6 1.1-2.7 2.8-2.7 2 0 3.2 1.4 3.2 3.9s-1.3 4.2-3.4 4.2c-.8 0-1.7-.2-2.4-.6l.5-1c.5.3 1.2.5 1.8.5zm-1.3-4.3c0 .9.6 1.5 1.5 1.5 1.1 0 1.7-.7 1.7-1.5 0-.7-.5-1.5-1.6-1.5-.9 0-1.6.6-1.6 1.5zm8.2 4.3c1.5 0 2.2-1.2 2.2-2.9-.4.7-1.2 1.1-2.2 1.1-1.6 0-2.5-1-2.5-2.5 0-1.6 1.1-2.7 2.8-2.7 2 0 3.2 1.4 3.2 3.9s-1.3 4.2-3.4 4.2c-.8 0-1.7-.2-2.4-.6l.5-1c.6.3 1.2.5 1.8.5zm-1.2-4.3c0 .9.6 1.5 1.5 1.5 1.1 0 1.7-.7 1.7-1.5 0-.7-.5-1.5-1.6-1.5-1 0-1.6.6-1.6 1.5zm11.9-2.6v1l-3.3 6.9h-1.4l3.3-6.7h-3.4v1.1H131v-2.3h6.1zM57.5 146h1.2v3c-.8.6-2 1-3.1 1-2.4 0-4.2-1.8-4.2-4.1s1.9-4.1 4.3-4.1c1.2 0 2.3.4 3.1 1.1l-.8 1c-.6-.6-1.5-.9-2.3-.9-1.6 0-2.9 1.3-2.9 2.9 0 1.6 1.3 2.9 3 2.9.6 0 1.3-.2 1.9-.6V146zm6.5 2.8c1.3 0 2.1-.8 2.1-2.2v-4.7h1.4v4.7c0 2.1-1.3 3.4-3.5 3.4s-3.5-1.3-3.5-3.4v-4.7h1.4v4.7c-.1 1.4.8 2.2 2.1 2.2zm10.4-.7h-4.1l-.8 1.8h-1.4l3.6-8.1h1.4l3.5 8.1h-1.5l-.7-1.8zm-.5-1.2l-1.5-3.6-1.5 3.6h3zm8.9 3.1l-1.5-2.4H79v2.4h-1.4v-8.1H81c2.1 0 3.3 1 3.3 2.8 0 1.3-.6 2.2-1.7 2.6l1.8 2.7h-1.6zm-1.8-3.7c1.2 0 2-.5 2-1.6s-.7-1.6-2-1.6h-1.9v3.2H81zm10.3 1.8h-4.1l-.8 1.8H85l3.6-8.1H90l3.5 8.1H92l-.7-1.8zm-.6-1.2l-1.5-3.6-1.5 3.6h3zm5.2-5l4.3 5.8v-5.8h1.3v8.1h-1.3l-4.3-5.8v5.8h-1.4v-8.1h1.4zm13.3 0v1.2h-2.6v6.9h-1.4v-6.9h-2.5v-1.2h6.5zm6.9 0v1.2h-4.4v2.2h3.9v1.2h-3.9v2.2h4.5v1.2h-5.9v-8.1h5.8zm7.6 0v1.2h-4.4v2.2h3.9v1.2h-3.9v2.2h4.5v1.2h-5.9v-8.1h5.8zm9.3 4c0 2.3-1.8 4-4.2 4h-3.3v-8.1h3.3c2.4.1 4.2 1.8 4.2 4.1zm-1.4 0c0-1.6-1.2-2.8-2.8-2.8h-1.9v5.6h2c1.5 0 2.7-1.1 2.7-2.8z"/><path fill="#2B292A" d="M10.3 124.1c-.6 4.7.3 9.3 2.6 13.4 2.4 4.1 5.9 7.2 10.3 9 6.4 2.6 11.6 7.8 14.3 14.3 1.8 4.4 4.9 7.9 9 10.3 4.1 2.4 8.7 3.3 13.4 2.6 6.9-1 14 .9 19.5 5.2 3.7 2.9 8.2 4.4 12.9 4.4 4.7 0 9.2-1.5 12.9-4.4 5.5-4.3 12.6-6.2 19.5-5.2 4.7.6 9.3-.3 13.4-2.6 4.1-2.4 7.2-5.9 9-10.3 2.6-6.4 7.8-11.6 14.3-14.3 4.4-1.8 7.9-4.9 10.3-9 2.4-4.1 3.3-8.7 2.6-13.4-1-6.9.9-14 5.2-19.5 2.9-3.7 4.4-8.2 4.4-12.9s-1.5-9.2-4.4-12.9c-4.3-5.5-6.2-12.6-5.2-19.5.6-4.7-.3-9.3-2.6-13.4-2.4-4.1-5.9-7.2-10.3-9-6.4-2.6-11.6-7.8-14.3-14.3-1.8-4.4-4.9-7.9-9-10.3-4.1-2.4-8.7-3.3-13.4-2.6-6.9 1-14-.9-19.5-5.2C101.5 1.6 97 .1 92.3.1c-4.7 0-9.2 1.5-12.9 4.4-5.5 4.3-12.6 6.2-19.5 5.2-4.7-.6-9.3.3-13.4 2.6-4.1 2.4-7.2 5.9-9 10.3-2.6 6.4-7.8 11.6-14.3 14.3-4.4 1.8-7.9 4.9-10.3 9-2.4 4.1-3.3 8.7-2.6 13.4 1 6.9-.9 14-5.2 19.5-3 3.8-4.5 8.2-4.5 13S2.1 101 5 104.7c4.3 5.5 6.2 12.6 5.3 19.4zm3.4-65.2c-.5-3.9.2-7.8 2.2-11.2 2-3.4 4.9-6 8.6-7.5 7.3-3 13.2-8.9 16.2-16.2 1.5-3.6 4.1-6.6 7.5-8.6 3.4-2 7.3-2.7 11.2-2.2 7.8 1.1 15.8-1.1 22.1-5.9 3.1-2.4 6.8-3.7 10.8-3.7s7.7 1.3 10.8 3.7c6.2 4.8 14.3 7 22.1 5.9 3.9-.5 7.8.2 11.2 2.2 3.4 2 6 4.9 7.5 8.6 3 7.3 8.9 13.2 16.2 16.2 3.6 1.5 6.6 4.1 8.6 7.5s2.7 7.3 2.2 11.2c-1.1 7.8 1.1 15.8 5.9 22.1 2.4 3.1 3.7 6.8 3.7 10.8 0 3.9-1.3 7.7-3.7 10.8-4.8 6.2-7 14.3-5.9 22.1.5 3.9-.2 7.8-2.2 11.2-2 3.4-4.9 6-8.6 7.5-7.3 3-13.2 8.9-16.2 16.2-1.5 3.6-4.1 6.6-7.5 8.6-3.4 2-7.3 2.7-11.2 2.2-7.8-1.1-15.8 1.1-22.1 5.9-3.1 2.4-6.8 3.7-10.8 3.7s-7.7-1.3-10.8-3.7c-5.2-4-11.6-6.2-18.1-6.2-1.3 0-2.7.1-4 .3-3.9.5-7.8-.2-11.2-2.2-3.4-2-6-4.9-7.5-8.6-3-7.3-8.9-13.2-16.2-16.2-3.6-1.5-6.6-4.1-8.6-7.5-2-3.4-2.7-7.3-2.2-11.2 1.1-7.8-1.1-15.8-5.9-22.1-2.4-3.1-3.7-6.8-3.7-10.8 0-3.9 1.3-7.7 3.7-10.8 4.8-6.2 7-14.3 5.9-22.1z"/><path fill="#2B292A" d="M118.9 165l.1 2c1.1-.1 2.2-.1 3.3 0l.1-2c-1.1-.1-2.3 0-3.5 0zm6.8-146.8c1-.1 2-.2 3-.1l.2-2c-1.1-.1-2.3-.1-3.5.1h-.2l.3 2h.2zM18.9 120c0-1.2-.1-2.4-.2-3.5l-2 .2c.1 1.1.2 2.2.2 3.3h2zm128.8-84.5c-.8-.8-1.5-1.6-2.2-2.5l-1.6 1.2c.7.9 1.5 1.8 2.3 2.7l1.5-1.4zM126 165.3l-.2 2c.6.1 1.1.1 1.7.1.7 0 1.3 0 2-.1l-.3-2c-1.1.1-2.2.1-3.2 0zm15.9-133.9l1.7-1.1c-.6-.9-1.1-1.9-1.6-2.9l-1.8.9c.4 1.1 1 2.1 1.7 3.1zm-1.4-7.1c-.5-1.1-1.2-2.2-2-3.1l-1.5 1.3c.7.8 1.3 1.7 1.7 2.7l1.8-.9zm-121.9 101c.1-.6.1-1.1.2-1.7l-2-.2c0 .5-.1 1.1-.2 1.6-.1.6-.1 1.3-.1 1.9h2c0-.5.1-1.1.1-1.6zm115.1 38.4c-.5.3-1 .5-1.5.7l.8 1.9c.6-.2 1.2-.5 1.7-.8.5-.3 1-.6 1.5-1l-1.2-1.6c-.4.3-.9.6-1.3.8zm.9-143.3l1.1-1.7c-.3-.2-.7-.4-1-.7-.7-.4-1.5-.8-2.2-1.1l-.7 1.9c.7.2 1.3.6 1.9.9.3.3.6.5.9.7zM43 153l-1.7 1c.6 1 1.1 1.9 1.6 3l1.8-.8c-.6-1.1-1.1-2.2-1.7-3.2zm-5.7-4.3c.8.8 1.5 1.7 2.1 2.6L41 150c-.7-.9-1.5-1.9-2.3-2.7l-1.4 1.4zm-20.4-18.1c.3 1.2.8 2.3 1.4 3.4l1.8-1c-.5-.9-.9-1.9-1.2-3l-2 .6zm59.5 39.1c1 .4 2 .9 3 1.5l1-1.7c-1-.6-2.1-1.1-3.2-1.6l-.8 1.8zm6.9 1.7l-1.2 1.6c.4.3.7.5 1.1.8.6.5 1.2.9 1.9 1.2l1-1.8c-.6-.3-1.1-.7-1.6-1.1-.4-.2-.8-.5-1.2-.7zm-39-11.2c.6 1.1 1.4 2.1 2.2 2.9l1.4-1.4c-.7-.8-1.4-1.6-1.9-2.5l-1.7 1zm-27.6-101c.1 1.1.2 2.2.2 3.3h2c0-1.2-.1-2.4-.2-3.5l-2 .2zm15.6 85c.9.6 1.8 1.3 2.6 2.1l1.3-1.5c-.9-.8-1.8-1.5-2.8-2.2l-1.1 1.6zM20.4 137c.8.9 1.8 1.7 2.8 2.4l1.1-1.7c-.9-.6-1.7-1.2-2.4-2l-1.5 1.3zm6.1 3.9c1 .4 2 1 3 1.5l1-1.7c-1-.6-2.1-1.1-3.2-1.6l-.8 1.8zM172.9 99l1.6 1.2c.7-1 1.3-2.1 1.7-3.3l-1.9-.7c-.2 1-.7 1.9-1.4 2.8zm-6.3 12.5l1.9.5c.3-1.1.6-2.1 1-3.2l-1.9-.7c-.3 1.1-.7 2.3-1 3.4zm-78.1 64.9c1.2.3 2.4.5 3.7.5v-2c-1.1 0-2.1-.1-3.2-.4l-.5 1.9zm55.7-27.6l1.6 1.3c.7-.9 1.5-1.7 2.2-2.5l-1.4-1.4c-.8.8-1.6 1.7-2.4 2.6zm26.4-67.6l1.7-1.1c-.6-.9-1.1-1.9-1.6-2.9l-1.8.9c.5 1.1 1.1 2.1 1.7 3.1zm-2.9-13.5c-.2-1.1-.3-2.2-.3-3.3l-2 .1c.1 1.2.2 2.4.3 3.5l2-.3zm1.4 37.2l1.8.9c.5-1 1.1-2 1.7-2.9l-1.7-1.1c-.6 1-1.2 2.1-1.8 3.1zm-8 32l1.3 1.6c1-.8 1.8-1.7 2.6-2.7l-1.6-1.2c-.8.8-1.5 1.6-2.3 2.3zm3.8-5.1l1.9.8c.5-1.1.8-2.3 1-3.6l-2-.3c-.3 1.1-.5 2.1-.9 3.1zm2.5-9.8l-2 .1c0 1.1.1 2.2.3 3.3v.3l2-.2v-.3c-.2-1.2-.3-2.2-.3-3.2zm-2-3.5l2 .1c.1-1.1.2-2.2.4-3.3l-2-.3c-.2 1.1-.3 2.3-.4 3.5zm10.7-32.4c-.5-1.1-1.1-2.2-1.9-3.2l-1.6 1.2c.7.9 1.2 1.8 1.6 2.7l1.9-.7zM158.7 43c-1-.4-2-.9-3-1.4l-.9 1.8c1 .6 2.1 1.1 3.2 1.5l.7-1.9zm-.7 95.7c-.9.4-1.9.8-2.8 1.3l.9 1.8c.9-.4 1.7-.8 2.6-1.2.2-.1.3-.1.5-.2l-.8-1.8c-.2 0-.3 0-.4.1zm-5.2-98.9c-.9-.6-1.8-1.3-2.7-2l-1.3 1.5c.9.8 1.9 1.5 2.8 2.1l1.2-1.6zm-12.4 115l1.8.9c.5-1 1.1-2 1.7-2.9l-1.7-1.1c-.7 1-1.3 2-1.8 3.1zm8.8-11l1.3 1.6c.9-.7 1.8-1.4 2.7-2l-1.1-1.7c-1 .7-1.9 1.4-2.9 2.1zm16.5-85.6l-.3 2.7 2 .1c0-.9.1-1.7.3-2.6 0-.3.1-.6.1-.8l-2-.2c-.1.3-.1.6-.1.8zm-28.4 102.5l1.6 1.2c.8-1 1.4-2 1.9-3.2l-1.8-.8c-.5 1-1.1 1.9-1.7 2.8zM167.6 54c-.2-1.2-.6-2.4-1.1-3.5l-1.8.8c.4 1 .8 2 .9 3l2-.3zm-.1 20.9l1.9-.7c-.4-1-.7-2.1-1-3.2l-1.9.5c.2 1.1.6 2.3 1 3.4zM163 48.6l1.6-1.3c-.8-1-1.7-1.8-2.7-2.6l-1.2 1.6c.8.7 1.6 1.5 2.3 2.3zm12.2 43.2c0 .5 0 .9-.1 1.4l2 .2c.1-.5.1-1 .1-1.6 0-.7-.1-1.4-.2-2.1l-2 .3c.2.5.2 1.1.2 1.8zM43.5 29.7l-1.8-1c-.5 1-1.1 1.9-1.8 2.8l1.6 1.2c.8-1 1.4-2 2-3zm1.7-3.7c.3-.8.8-1.6 1.3-2.4l-1.7-1.1c-.6.9-1.1 1.8-1.5 2.7-.1.2-.1.3-.2.5l1.8.8c.2-.2.3-.4.3-.5zm-5.8 9.5l-1.5-1.3c-.7.8-1.5 1.7-2.3 2.4L37 38c.8-.8 1.7-1.7 2.4-2.5zm11.2-15.7c.2-.1.4-.2.7-.4l-.9-1.8c-.3.1-.5.3-.8.4-.8.5-1.6 1-2.3 1.6l1.3 1.5c.6-.4 1.3-.9 2-1.3zm6.8-1.7l.1-2c-1.2-.1-2.5 0-3.7.3l.4 2c1.1-.2 2.2-.3 3.2-.3zm-6.9 145.5l-1 1.7.2.1c1 .6 2.1 1.1 3.2 1.4l.6-1.9c-1-.3-1.9-.7-2.8-1.2l-.2-.1zm6 3.8h.4c.7 0 1.3 0 2-.1.4-.1.8-.1 1.2-.1l-.2-2c-.4 0-.8.1-1.2.1-.7.1-1.4.1-2.1.1l-.1 2zM34.3 40.3L33 38.7c-.9.7-1.8 1.3-2.8 1.9l1.1 1.7c1.1-.6 2-1.3 3-2zM19.1 52.6l-1.9-.6c-.4 1.2-.6 2.4-.7 3.6l2 .1c.1-1.1.3-2.1.6-3.1zm7.2-7.7c.6-.3 1.3-.5 1.9-.8l-.9-1.8c-.6.3-1.2.5-1.8.8-.5.2-.9.4-1.4.7l.9 1.8c.5-.4.9-.6 1.3-.7zm38.1-26.4l-.1-2c-1.1 0-2.2 0-3.3-.1l-.1 2c.8.1 1.7.1 2.5.1.3.1.6.1 1 0zM18.8 66l-2-.2c-.1 1.1-.3 2.2-.5 3.3l2 .4c.2-1.1.4-2.3.5-3.5zm3.7-18.7l-1.4-1.5c-.9.8-1.7 1.8-2.4 2.8l1.7 1.1c.7-.9 1.4-1.7 2.1-2.4zm82.8 121.4l.9 1.8c1-.5 2-1 3-1.4l-.7-1.9c-1 .5-2.1 1-3.2 1.5zm3.5-154.5c-1-.4-2-.9-3-1.4l-.9 1.8c1 .6 2.1 1.1 3.2 1.5l.7-1.9zM89.9 8.9l-.4-2c-1.2.2-2.4.6-3.5 1.1l.8 1.8c1-.4 2-.7 3.1-.9zm6.9-1.5c-1.2-.4-2.4-.6-3.6-.7l-.1 2c1.1.1 2.1.3 3.1.6l.6-1.9zm18.4 8.6c-1.1-.2-2.2-.5-3.3-.8l-.6 1.9c1.1.3 2.3.6 3.5.8l.4-1.9zM63.4 167c1.1 0 2.2.1 3.3.2l.2-2c-1.2-.1-2.4-.2-3.5-.2v2zm36.5 5.2c-.1.1-.3.2-.4.3l1.2 1.6c.2-.1.3-.3.5-.4.7-.6 1.5-1.1 2.2-1.6l-1.1-1.7c-.9.6-1.7 1.2-2.4 1.8zm12.6-4.1c1.1-.3 2.2-.5 3.3-.7l-.3-2c-1.2.2-2.3.4-3.5.8l.5 1.9zm-19 6.7l.2 2c1.2-.1 2.4-.4 3.6-.9l-.7-1.9c-1 .4-2 .7-3.1.8zm28.4-156.3l-.1-2c-1.1 0-2.2 0-3.3-.1l-.2 2c.9.1 1.7.1 2.6.1.4.1.7.1 1 0zm-20.1-5.8l1.1-1.7c-.6-.4-1.2-.9-1.8-1.3-.3-.2-.6-.5-1-.7L99 10.7c.3.2.6.4.8.6.7.5 1.4 1 2 1.4zm-23.7 2.5l-.9-1.8c-1 .5-2 .9-3.1 1.3l.7 1.9c1.1-.4 2.2-.9 3.3-1.4zM70 167.7c1.1.2 2.2.5 3.2.9l.6-1.9c-1.1-.4-2.3-.7-3.4-.9l-.4 1.9zM84.1 11.6L82.9 10c-.9.7-1.8 1.3-2.8 1.9l1 1.7c1.1-.7 2.1-1.3 3-2zm-12.7 6l-.5-2c-1.1.3-2.2.5-3.3.6l.3 2c1.2-.1 2.4-.3 3.5-.6zm19.8 14.9V20.9h-1.4c-.6 2.6-4.5 20.1-9.4 25.6 0 0 4.4 5 4.8 10.3H99c.4-5.3 4.8-10.3 4.8-10.3-4.9-5.5-8.8-23-9.4-25.6H93v11.6c1 .4 1.7 1.4 1.7 2.5 0 1.5-1.2 2.7-2.7 2.7-1.5 0-2.7-1.2-2.7-2.7.2-1.2.9-2.1 1.9-2.5zm-7.6 26.6h17v7.5h-17zM46 113.6l-3.8 3.8-3.8-3.8-.6.6-.6.6 3.8 3.8-3.8 3.8.6.6.6.6 3.8-3.8 3.8 3.8 1.2-1.2-3.8-3.8 3.8-3.8zm92.3 0l-1.2 1.2 3.8 3.8-3.8 3.8 1.2 1.2 3.8-3.8 3.8 3.8.6-.6.6-.6-3.7-3.8 3.7-3.8-.6-.6-.6-.6-3.8 3.8z"/></svg>